<?xml version="1.0" encoding="UTF-8" standalone="no"?><svg xmlns="http://www.w3.org/2000/svg" xmlns:xlink="http://www.w3.org/1999/xlink" contentScriptType="application/ecmascript" contentStyleType="text/css" height="439px" preserveAspectRatio="none" style="width:653px;height:439px;" version="1.1" viewBox="0 0 653 439" width="653px" zoomAndPan="magnify"><defs><filter height="300%" id="f1kddxhyekjlq4" width="300%" x="-1" y="-1"><feGaussianBlur result="blurOut" stdDeviation="2.0"/><feColorMatrix in="blurOut" result="blurOut2" type="matrix" values="0 0 0 0 0 0 0 0 0 0 0 0 0 0 0 0 0 0 .4 0"/><feOffset dx="4.0" dy="4.0" in="blurOut2" result="blurOut3"/><feBlend in="SourceGraphic" in2="blurOut3" mode="normal"/></filter></defs><g><rect fill="#FFFFFF" filter="url(#f1kddxhyekjlq4)" height="36.3441" style="stroke: #000000; stroke-width: 1.5;" width="114" x="352.5" y="8"/><text fill="#000000" font-family="sans-serif" font-size="12" lengthAdjust="spacingAndGlyphs" textLength="100" x="359.5" y="22.8281">SubCallStatement</text><line style="stroke: #000000; stroke-width: 1.5;" x1="353.5" x2="465.5" y1="28.3441" y2="28.3441"/><rect fill="#FFFFFF" filter="url(#f1kddxhyekjlq4)" height="36.3441" style="stroke: #000000; stroke-width: 1.5;" width="157" x="331" y="104"/><text fill="#000000" font-family="sans-serif" font-size="12" lengthAdjust="spacingAndGlyphs" textLength="143" x="338" y="118.8281">Func: dynamic_plant_alloc</text><line style="stroke: #000000; stroke-width: 1.5;" x1="332" x2="487" y1="124.3441" y2="124.3441"/><rect fill="#FFFFFF" filter="url(#f1kddxhyekjlq4)" height="36.3441" style="stroke: #000000; stroke-width: 1.5;" width="67" x="212" y="200"/><text fill="#000000" font-family="sans-serif" font-size="12" lengthAdjust="spacingAndGlyphs" textLength="53" x="219" y="214.8281">Func: min</text><line style="stroke: #000000; stroke-width: 1.5;" x1="213" x2="278" y1="220.3441" y2="220.3441"/><rect fill="#FFFFFF" filter="url(#f1kddxhyekjlq4)" height="36.3441" style="stroke: #000000; stroke-width: 1.5;" width="48" x="88.5" y="296"/><text fill="#000000" font-family="sans-serif" font-size="12" lengthAdjust="spacingAndGlyphs" textLength="34" x="95.5" y="310.8281">Infix: -</text><line style="stroke: #000000; stroke-width: 1.5;" x1="89.5" x2="135.5" y1="316.3441" y2="316.3441"/><rect fill="#FFFFFF" filter="url(#f1kddxhyekjlq4)" height="36.3441" style="stroke: #000000; stroke-width: 1.5;" width="31" x="6" y="392"/><text fill="#000000" font-family="sans-serif" font-size="12" lengthAdjust="spacingAndGlyphs" textLength="17" x="13" y="406.8281">1.0</text><line style="stroke: #000000; stroke-width: 1.5;" x1="7" x2="36" y1="412.3441" y2="412.3441"/><rect fill="#FFFFFF" filter="url(#f1kddxhyekjlq4)" height="36.3441" style="stroke: #000000; stroke-width: 1.5;" width="81" x="72" y="392"/><text fill="#000000" font-family="sans-serif" font-size="12" lengthAdjust="spacingAndGlyphs" textLength="67" x="79" y="406.8281">n_lim_factor</text><line style="stroke: #000000; stroke-width: 1.5;" x1="73" x2="152" y1="412.3441" y2="412.3441"/><rect fill="#FFFFFF" filter="url(#f1kddxhyekjlq4)" height="36.3441" style="stroke: #000000; stroke-width: 1.5;" width="48" x="221.5" y="296"/><text fill="#000000" font-family="sans-serif" font-size="12" lengthAdjust="spacingAndGlyphs" textLength="34" x="228.5" y="310.8281">Infix: -</text><line style="stroke: #000000; stroke-width: 1.5;" x1="222.5" x2="268.5" y1="316.3441" y2="316.3441"/><rect fill="#FFFFFF" filter="url(#f1kddxhyekjlq4)" height="36.3441" style="stroke: #000000; stroke-width: 1.5;" width="31" x="188" y="392"/><text fill="#000000" font-family="sans-serif" font-size="12" lengthAdjust="spacingAndGlyphs" textLength="17" x="195" y="406.8281">1.0</text><line style="stroke: #000000; stroke-width: 1.5;" x1="189" x2="218" y1="412.3441" y2="412.3441"/><rect fill="#FFFFFF" filter="url(#f1kddxhyekjlq4)" height="36.3441" style="stroke: #000000; stroke-width: 1.5;" width="81" x="254" y="392"/><text fill="#000000" font-family="sans-serif" font-size="12" lengthAdjust="spacingAndGlyphs" textLength="67" x="261" y="406.8281">p_lim_factor</text><line style="stroke: #000000; stroke-width: 1.5;" x1="255" x2="334" y1="412.3441" y2="412.3441"/><rect fill="#FFFFFF" filter="url(#f1kddxhyekjlq4)" height="36.3441" style="stroke: #000000; stroke-width: 1.5;" width="51" x="384" y="200"/><text fill="#000000" font-family="sans-serif" font-size="12" lengthAdjust="spacingAndGlyphs" textLength="37" x="391" y="214.8281">Infix: +</text><line style="stroke: #000000; stroke-width: 1.5;" x1="385" x2="434" y1="220.3441" y2="220.3441"/><rect fill="#FFFFFF" filter="url(#f1kddxhyekjlq4)" height="36.3441" style="stroke: #000000; stroke-width: 1.5;" width="79" x="347" y="296"/><text fill="#000000" font-family="sans-serif" font-size="12" lengthAdjust="spacingAndGlyphs" textLength="65" x="354" y="310.8281">Func: laisun</text><line style="stroke: #000000; stroke-width: 1.5;" x1="348" x2="425" y1="316.3441" y2="316.3441"/><rect fill="#FFFFFF" filter="url(#f1kddxhyekjlq4)" height="36.3441" style="stroke: #000000; stroke-width: 1.5;" width="56" x="370.5" y="392"/><text fill="#000000" font-family="sans-serif" font-size="12" lengthAdjust="spacingAndGlyphs" textLength="42" x="377.5" y="406.8281">Ident: p</text><line style="stroke: #000000; stroke-width: 1.5;" x1="371.5" x2="425.5" y1="412.3441" y2="412.3441"/><rect fill="#FFFFFF" filter="url(#f1kddxhyekjlq4)" height="36.3441" style="stroke: #000000; stroke-width: 1.5;" width="79" x="461" y="296"/><text fill="#000000" font-family="sans-serif" font-size="12" lengthAdjust="spacingAndGlyphs" textLength="65" x="468" y="310.8281">Func: laisha</text><line style="stroke: #000000; stroke-width: 1.5;" x1="462" x2="539" y1="316.3441" y2="316.3441"/><rect fill="#FFFFFF" filter="url(#f1kddxhyekjlq4)" height="36.3441" style="stroke: #000000; stroke-width: 1.5;" width="56" x="472.5" y="392"/><text fill="#000000" font-family="sans-serif" font-size="12" lengthAdjust="spacingAndGlyphs" textLength="42" x="479.5" y="406.8281">Ident: p</text><line style="stroke: #000000; stroke-width: 1.5;" x1="473.5" x2="527.5" y1="412.3441" y2="412.3441"/><rect fill="#FFFFFF" filter="url(#f1kddxhyekjlq4)" height="36.3441" style="stroke: #000000; stroke-width: 1.5;" width="126" x="516.5" y="200"/><text fill="#000000" font-family="sans-serif" font-size="12" lengthAdjust="spacingAndGlyphs" textLength="112" x="523.5" y="214.8281">Func: allocation_leaf</text><line style="stroke: #000000; stroke-width: 1.5;" x1="517.5" x2="641.5" y1="220.3441" y2="220.3441"/><rect fill="#FFFFFF" filter="url(#f1kddxhyekjlq4)" height="36.3441" style="stroke: #000000; stroke-width: 1.5;" width="56" x="575.5" y="296"/><text fill="#000000" font-family="sans-serif" font-size="12" lengthAdjust="spacingAndGlyphs" textLength="42" x="582.5" y="310.8281">Ident: p</text><line style="stroke: #000000; stroke-width: 1.5;" x1="576.5" x2="630.5" y1="316.3441" y2="316.3441"/><!--MD5=[0c1e3a311c90201a618693d929f425ad]
link root to call--><path d="M409.5,44.24 C409.5,59.48 409.5,81.81 409.5,98.46 " fill="none" id="root-&gt;call" style="stroke: #A80036; stroke-width: 1.0;"/><polygon fill="#A80036" points="409.5,103.87,413.5,94.87,409.5,98.87,405.5,94.87,409.5,103.87" style="stroke: #A80036; stroke-width: 1.0;"/><!--MD5=[12add19aaf9094983cbfa27cd0910b30]
link call to f_min--><path d="M379.8,140.02 C351.68,156.14 309.46,180.34 279.89,197.29 " fill="none" id="call-&gt;f_min" style="stroke: #A80036; stroke-width: 1.0;"/><polygon fill="#A80036" points="275.25,199.95,285.048,198.9508,279.5895,197.4662,281.074,192.0077,275.25,199.95" style="stroke: #A80036; stroke-width: 1.0;"/><!--MD5=[48243566eb3665b3a89cb21cf0481623]
link f_min to min_expr1--><path d="M221.41,236.02 C198.86,251.96 165.14,275.79 141.21,292.71 " fill="none" id="f_min-&gt;min_expr1" style="stroke: #A80036; stroke-width: 1.0;"/><polygon fill="#A80036" points="136.86,295.79,146.5189,293.8651,140.944,292.9055,141.9037,287.3306,136.86,295.79" style="stroke: #A80036; stroke-width: 1.0;"/><!--MD5=[c2b8d33c8e492ac18e1f5dcd792d7b07]
link min_expr1 to lit1--><path d="M95.81,332.24 C80.26,348.3 57.08,372.25 40.75,389.11 " fill="none" id="min_expr1-&gt;lit1" style="stroke: #A80036; stroke-width: 1.0;"/><polygon fill="#A80036" points="37.17,392.81,46.3042,389.1267,40.6481,389.2179,40.5568,383.5618,37.17,392.81" style="stroke: #A80036; stroke-width: 1.0;"/><!--MD5=[78704129b7a46a68ff3ea2775df09ef0]
link min_expr1 to nlim--><path d="M112.5,332.24 C112.5,347.48 112.5,369.81 112.5,386.46 " fill="none" id="min_expr1-&gt;nlim" style="stroke: #A80036; stroke-width: 1.0;"/><polygon fill="#A80036" points="112.5,391.87,116.5,382.87,112.5,386.87,108.5,382.87,112.5,391.87" style="stroke: #A80036; stroke-width: 1.0;"/><!--MD5=[53c16c9d2dffa33028f4e19fec33661b]
link f_min to min_expr2--><path d="M245.5,236.24 C245.5,251.48 245.5,273.81 245.5,290.46 " fill="none" id="f_min-&gt;min_expr2" style="stroke: #A80036; stroke-width: 1.0;"/><polygon fill="#A80036" points="245.5,295.87,249.5,286.87,245.5,290.87,241.5,286.87,245.5,295.87" style="stroke: #A80036; stroke-width: 1.0;"/><!--MD5=[e9ceac29ca4297408e25c579d0cff497]
link min_expr2 to lit2--><path d="M237.8,332.24 C230.93,347.61 220.84,370.2 213.38,386.89 " fill="none" id="min_expr2-&gt;lit2" style="stroke: #A80036; stroke-width: 1.0;"/><polygon fill="#A80036" points="211.15,391.87,218.4815,385.2936,213.1953,387.3075,211.1815,382.0212,211.15,391.87" style="stroke: #A80036; stroke-width: 1.0;"/><!--MD5=[6ed861eaba473ec59cbe9731a61f5db7]
link min_expr2 to plim--><path d="M254.49,332.24 C262.57,347.74 274.48,370.59 283.2,387.32 " fill="none" id="min_expr2-&gt;plim" style="stroke: #A80036; stroke-width: 1.0;"/><polygon fill="#A80036" points="285.57,391.87,284.9717,382.0393,283.2655,387.4327,277.8721,385.7265,285.57,391.87" style="stroke: #A80036; stroke-width: 1.0;"/><!--MD5=[5761e9b11aeb8eb465b9897d81c0303e]
link call to add_expr--><path d="M409.5,140.24 C409.5,155.48 409.5,177.81 409.5,194.46 " fill="none" id="call-&gt;add_expr" style="stroke: #A80036; stroke-width: 1.0;"/><polygon fill="#A80036" points="409.5,199.87,413.5,190.87,409.5,194.87,405.5,190.87,409.5,199.87" style="stroke: #A80036; stroke-width: 1.0;"/><!--MD5=[a7d46deebc8e0ce76075ffe2c48d8a05]
link add_expr to f_laisun--><path d="M405.28,236.24 C401.52,251.61 395.99,274.2 391.91,290.89 " fill="none" id="add_expr-&gt;f_laisun" style="stroke: #A80036; stroke-width: 1.0;"/><polygon fill="#A80036" points="390.69,295.87,396.7103,288.0754,391.8758,291.0126,388.9385,286.1781,390.69,295.87" style="stroke: #A80036; stroke-width: 1.0;"/><!--MD5=[96f43f2c0d91e91b72ed26b2efbb2f27]
link f_laisun to p1--><path d="M388.7,332.24 C390.66,347.61 393.55,370.2 395.68,386.89 " fill="none" id="f_laisun-&gt;p1" style="stroke: #A80036; stroke-width: 1.0;"/><polygon fill="#A80036" points="396.31,391.87,399.1495,382.4393,395.6828,386.9095,391.2127,383.4428,396.31,391.87" style="stroke: #A80036; stroke-width: 1.0;"/><!--MD5=[1035c002ef72aec8e8ec6e4efff1feb7]
link add_expr to f_laisha--><path d="M426.19,236.24 C441.46,252.01 464.07,275.37 480.34,292.17 " fill="none" id="add_expr-&gt;f_laisha" style="stroke: #A80036; stroke-width: 1.0;"/><polygon fill="#A80036" points="483.92,295.87,480.5338,286.6216,480.4422,292.2777,474.7861,292.1861,483.92,295.87" style="stroke: #A80036; stroke-width: 1.0;"/><!--MD5=[e87c434d1fb6edb7e55855d26149cee5]
link f_laisha to p2--><path d="M500.5,332.24 C500.5,347.48 500.5,369.81 500.5,386.46 " fill="none" id="f_laisha-&gt;p2" style="stroke: #A80036; stroke-width: 1.0;"/><polygon fill="#A80036" points="500.5,391.87,504.5,382.87,500.5,386.87,496.5,382.87,500.5,391.87" style="stroke: #A80036; stroke-width: 1.0;"/><!--MD5=[8c42e450cb07ac6e6cd2f889dbf5cdc2]
link call to f_alloc--><path d="M440.29,140.02 C469.56,156.21 513.56,180.54 544.23,197.5 " fill="none" id="call-&gt;f_alloc" style="stroke: #A80036; stroke-width: 1.0;"/><polygon fill="#A80036" points="548.66,199.95,542.7243,192.0908,544.2859,197.5278,538.8488,199.0894,548.66,199.95" style="stroke: #A80036; stroke-width: 1.0;"/><!--MD5=[94d0e8dc9d750873ea2f45f27b3335ee]
link f_alloc to p3--><path d="M583.9,236.24 C587.83,251.61 593.59,274.2 597.86,290.89 " fill="none" id="f_alloc-&gt;p3" style="stroke: #A80036; stroke-width: 1.0;"/><polygon fill="#A80036" points="599.13,295.87,600.7672,286.1582,597.8871,291.0269,593.0183,288.1468,599.13,295.87" style="stroke: #A80036; stroke-width: 1.0;"/><!--MD5=[0fab004fbcfe8f0d33c97cca2705171c]
@startuml
skinparam object {
    BackgroundColor white
    BorderColor black
    FontColor black
}

object "SubCallStatement" as root
object "Func: dynamic_plant_alloc" as call
object "Func: min" as f_min
object "Infix: -" as min_expr1
object "1.0" as lit1
object "n_lim_factor" as nlim
object "Infix: -" as min_expr2
object "1.0" as lit2
object "p_lim_factor" as plim

object "Infix: +" as add_expr
object "Func: laisun" as f_laisun
object "Ident: p" as p1
object "Func: laisha" as f_laisha
object "Ident: p" as p2

object "Func: allocation_leaf" as f_alloc
object "Ident: p" as p3

root - -> call
call - -> f_min
f_min - -> min_expr1
min_expr1 - -> lit1
min_expr1 - -> nlim
f_min - -> min_expr2
min_expr2 - -> lit2
min_expr2 - -> plim

call - -> add_expr
add_expr - -> f_laisun
f_laisun - -> p1
add_expr - -> f_laisha
f_laisha - -> p2

call - -> f_alloc
f_alloc - -> p3
@enduml

PlantUML version 1.2020.02(Sun Mar 01 05:22:07 EST 2020)
(GPL source distribution)
Java Runtime: OpenJDK Runtime Environment
JVM: OpenJDK 64-Bit Server VM
Java Version: 21.0.7+6-Ubuntu-0ubuntu124.04
Operating System: Linux
Default Encoding: UTF-8
Language: en
Country: US
--></g></svg>