<svg xmlns="http://www.w3.org/2000/svg" xmlns:xlink="http://www.w3.org/1999/xlink" contentStyleType="text/css" data-diagram-type="CLASS" height="843px" preserveAspectRatio="none" style="width:1461px;height:843px;background:#FFFFFF;" version="1.1" viewBox="0 0 1461 843" width="1461px" zoomAndPan="magnify"><defs/><g><!--class modules--><g class="entity" data-entity="modules" data-source-line="7" data-uid="ent0002" id="entity_modules"><rect fill="#FFFFFF" height="86.8858" rx="2.5" ry="2.5" style="stroke:#000000;stroke-width:1;" width="199.2493" x="290.5" y="23.5"/><text fill="#000000" font-family="Verdana" font-size="14" lengthAdjust="spacing" textLength="56.6438" x="361.8027" y="43.4659">Modules</text><line style="stroke:#000000;stroke-width:1;" x1="291.5" x2="488.7493" y1="52.5679" y2="52.5679"/><ellipse cx="301.5" cy="69.4429" fill="#FFFFFF" rx="3" ry="3" style="stroke:#000000;stroke-width:1;"/><text fill="#000000" font-family="Verdana" font-size="14" lengthAdjust="spacing" textLength="97.1176" x="308.5" y="75.2159">module_id : int</text><path d="M428.2824,58.5594 C425.7718,56.0488 421.7013,56.0488 419.19,58.5594 C417.2119,60.5381 416.7995,63.4822 417.9393,65.8715 L415.655,68.1553 C415.2817,68.5292 415.1644,69.0553 415.2904,69.5313 L414.1395,70.6817 C413.8601,70.4017 413.4092,70.4017 413.1298,70.6817 L412.12,71.692 C411.8406,71.9714 411.8406,72.4229 412.12,72.7023 L411.6143,73.2063 C411.3348,72.9275 410.8833,72.9275 410.6045,73.2063 L410.0993,73.7121 C409.8199,73.9915 409.8199,74.443 410.0993,74.7224 C410.1081,74.7318 410.1203,74.7341 410.1291,74.7417 C409.6659,75.4353 409.7394,76.382 410.3519,76.9951 C411.049,77.6922 412.1801,77.6922 412.8772,76.9951 L420.9709,68.9019 C423.3608,70.0423 426.3049,69.6293 428.283,67.6501 C430.7925,65.1406 430.7925,61.0701 428.2824,58.5594 M427.2727,61.5898 C426.7144,62.1475 425.8091,62.1475 425.252,61.5898 C424.6943,61.0322 424.6943,60.1274 425.252,59.5692 C425.8091,59.0115 426.7144,59.0115 427.2727,59.5692 C427.8303,60.1274 427.8303,61.0322 427.2727,61.5898" fill="#FED600"/><line style="stroke:#000000;stroke-width:1;" x1="291.5" x2="488.7493" y1="83.3179" y2="83.3179"/><text fill="#000000" font-family="Verdana" font-size="14" lengthAdjust="spacing" textLength="187.2493" x="296.5" y="102.2839">module_name : varchar(100)</text></g><!--class module_dependency--><g class="entity" data-entity="module_dependency" data-source-line="13" data-uid="ent0003" id="entity_module_dependency"><rect fill="#FFFFFF" height="132.3858" rx="2.5" ry="2.5" style="stroke:#000000;stroke-width:1;" width="183.6533" x="12" y="201"/><text fill="#000000" font-family="Verdana" font-size="14" lengthAdjust="spacing" textLength="132.2295" x="37.7119" y="220.9659">ModuleDependency</text><line style="stroke:#000000;stroke-width:1;" x1="13" x2="194.6533" y1="230.0679" y2="230.0679"/><ellipse cx="23" cy="246.9429" fill="#FFFFFF" rx="3" ry="3" style="stroke:#000000;stroke-width:1;"/><text fill="#000000" font-family="Verdana" font-size="14" lengthAdjust="spacing" textLength="127.4695" x="30" y="252.7159">dependency_id : int</text><path d="M180.1343,236.0594 C177.6236,233.5488 173.5531,233.5488 171.0419,236.0594 C169.0638,238.0381 168.6514,240.9822 169.7912,243.3715 L167.5069,245.6553 C167.1335,246.0292 167.0163,246.5553 167.1423,247.0313 L165.9914,248.1817 C165.712,247.9017 165.261,247.9017 164.9816,248.1817 L163.9719,249.192 C163.6925,249.4714 163.6925,249.9229 163.9719,250.2023 L163.4661,250.7063 C163.1867,250.4275 162.7352,250.4275 162.4564,250.7063 L161.9512,251.2121 C161.6718,251.4915 161.6718,251.943 161.9512,252.2224 C161.96,252.2318 161.9722,252.2341 161.981,252.2417 C161.5178,252.9353 161.5913,253.882 162.2038,254.4951 C162.9009,255.1922 164.032,255.1922 164.729,254.4951 L172.8228,246.4019 C175.2127,247.5423 178.1568,247.1293 180.1349,245.1501 C182.6444,242.6406 182.6444,238.5701 180.1343,236.0594 M179.1245,239.0898 C178.5663,239.6475 177.661,239.6475 177.1039,239.0898 C176.5462,238.5322 176.5462,237.6274 177.1039,237.0692 C177.661,236.5115 178.5663,236.5115 179.1245,237.0692 C179.6822,237.6274 179.6822,238.5322 179.1245,239.0898" fill="#FED600"/><line style="stroke:#000000;stroke-width:1;" x1="13" x2="194.6533" y1="260.8179" y2="260.8179"/><text fill="#000000" font-family="Verdana" font-size="14" lengthAdjust="spacing" textLength="97.1176" x="18" y="283.4659">module_id : int</text><path d="M127.5076,270.0679 L131.0076,266.5679 C134.5076,263.0679 134.5076,263.0679 138.0076,266.5679 C141.5076,270.0679 138.0076,273.5679 138.0076,273.5679 L133.3409,278.2346 C129.8409,281.7346 129.8409,281.7346 126.3409,278.2346 C125.6847,277.5783 125.2781,276.7063 125.2781,276.7063 L127.234,274.7533 C127.1553,275.5489 127.1553,275.5489 128.0909,276.4846 C128.0909,276.4846 129.8409,278.2346 131.5909,276.4846 L136.2576,271.8179 C138.0076,270.0679 138.0076,270.0679 136.2576,268.3179 C134.5076,266.5679 132.7576,268.3179 132.7576,268.3179 L130.5823,270.4932 C129.5008,269.6059 129.5008,269.6059 127.2888,270.2867 L127.5076,270.0679" fill="#8899A6"/><path d="M130.9172,280.5679 L127.4172,284.0679 C123.9172,287.5679 123.9172,287.5679 120.4172,284.0679 C116.9172,280.5679 120.4172,277.0679 120.4172,277.0679 L125.0838,272.4013 C128.5838,268.9013 128.5838,268.9013 132.0838,272.4013 C132.7401,273.0575 133.1467,273.9296 133.1467,273.9296 L131.1902,275.8832 C131.2689,275.0869 131.2689,275.0869 130.3333,274.1513 C130.3333,274.1513 128.5833,272.4013 126.8333,274.1513 L122.1666,278.8179 C120.4166,280.5679 120.4166,280.5679 122.1666,282.3179 C123.9166,284.0679 125.6666,282.3179 125.6666,282.3179 L127.8418,280.1427 C128.9233,281.0299 128.9233,281.0299 131.1353,280.3492 L130.9172,280.5679" fill="#8899A6"/><text fill="#000000" font-family="Verdana" font-size="14" lengthAdjust="spacing" textLength="128.4495" x="18" y="306.2159">dep_module_id : int</text><path d="M158.8395,292.8179 L162.3395,289.3179 C165.8395,285.8179 165.8395,285.8179 169.3395,289.3179 C172.8395,292.8179 169.3395,296.3179 169.3395,296.3179 L164.6728,300.9846 C161.1728,304.4846 161.1728,304.4846 157.6728,300.9846 C157.0166,300.3283 156.61,299.4563 156.61,299.4563 L158.5659,297.5033 C158.4871,298.2989 158.4871,298.2989 159.4228,299.2346 C159.4228,299.2346 161.1728,300.9846 162.9228,299.2346 L167.5895,294.5679 C169.3395,292.8179 169.3395,292.8179 167.5895,291.0679 C165.8395,289.3179 164.0895,291.0679 164.0895,291.0679 L161.9142,293.2432 C160.8327,292.3559 160.8327,292.3559 158.6207,293.0367 L158.8395,292.8179" fill="#8899A6"/><path d="M162.2491,303.3179 L158.7491,306.8179 C155.2491,310.3179 155.2491,310.3179 151.7491,306.8179 C148.2491,303.3179 151.7491,299.8179 151.7491,299.8179 L156.4157,295.1513 C159.9157,291.6513 159.9157,291.6513 163.4157,295.1513 C164.072,295.8075 164.4786,296.6796 164.4786,296.6796 L162.5221,298.6332 C162.6008,297.8369 162.6008,297.8369 161.6651,296.9013 C161.6651,296.9013 159.9151,295.1513 158.1651,296.9013 L153.4985,301.5679 C151.7485,303.3179 151.7485,303.3179 153.4985,305.0679 C155.2485,306.8179 156.9985,305.0679 156.9985,305.0679 L159.1737,302.8927 C160.2552,303.7799 160.2552,303.7799 162.4672,303.0992 L162.2491,303.3179" fill="#8899A6"/><text fill="#000000" font-family="Verdana" font-size="14" lengthAdjust="spacing" textLength="171.6533" x="18" y="325.2839">object_used : varchar(100)</text></g><!--class user_types--><g class="entity" data-entity="user_types" data-source-line="21" data-uid="ent0004" id="entity_user_types"><rect fill="#FFFFFF" height="109.6358" rx="2.5" ry="2.5" style="stroke:#000000;stroke-width:1;" width="212.8712" x="395.5" y="212"/><text fill="#000000" font-family="Verdana" font-size="14" lengthAdjust="spacing" textLength="68.7537" x="467.5587" y="231.9659">UserTypes</text><line style="stroke:#000000;stroke-width:1;" x1="396.5" x2="607.3712" y1="241.0679" y2="241.0679"/><ellipse cx="406.5" cy="257.9429" fill="#FFFFFF" rx="3" ry="3" style="stroke:#000000;stroke-width:1;"/><text fill="#000000" font-family="Verdana" font-size="14" lengthAdjust="spacing" textLength="110.7396" x="413.5" y="263.7159">user_type_id : int</text><path d="M546.9044,247.0594 C544.3937,244.5488 540.3232,244.5488 537.812,247.0594 C535.8339,249.0381 535.4215,251.9822 536.5613,254.3715 L534.277,256.6553 C533.9036,257.0292 533.7864,257.5553 533.9124,258.0313 L532.7615,259.1817 C532.482,258.9017 532.0311,258.9017 531.7517,259.1817 L530.742,260.192 C530.4625,260.4714 530.4625,260.9229 530.742,261.2023 L530.2362,261.7063 C529.9568,261.4275 529.5053,261.4275 529.2265,261.7063 L528.7213,262.2121 C528.4419,262.4915 528.4419,262.943 528.7213,263.2224 C528.73,263.2318 528.7423,263.2341 528.751,263.2417 C528.2879,263.9353 528.3614,264.882 528.9739,265.4951 C529.671,266.1922 530.802,266.1922 531.4991,265.4951 L539.5929,257.4019 C541.9828,258.5423 544.9269,258.1293 546.905,256.1501 C549.4145,253.6406 549.4145,249.5701 546.9044,247.0594 M545.8946,250.0898 C545.3364,250.6475 544.431,250.6475 543.874,250.0898 C543.3163,249.5322 543.3163,248.6274 543.874,248.0692 C544.431,247.5115 545.3364,247.5115 545.8946,248.0692 C546.4523,248.6274 546.4523,249.5322 545.8946,250.0898" fill="#FED600"/><line style="stroke:#000000;stroke-width:1;" x1="396.5" x2="607.3712" y1="271.8179" y2="271.8179"/><text fill="#000000" font-family="Verdana" font-size="14" lengthAdjust="spacing" textLength="97.1176" x="401.5" y="294.4659">module_id : int</text><path d="M511.0076,281.0679 L514.5076,277.5679 C518.0076,274.0679 518.0076,274.0679 521.5076,277.5679 C525.0076,281.0679 521.5076,284.5679 521.5076,284.5679 L516.8409,289.2346 C513.3409,292.7346 513.3409,292.7346 509.8409,289.2346 C509.1847,288.5783 508.7781,287.7063 508.7781,287.7063 L510.734,285.7533 C510.6553,286.5489 510.6553,286.5489 511.5909,287.4846 C511.5909,287.4846 513.3409,289.2346 515.0909,287.4846 L519.7576,282.8179 C521.5076,281.0679 521.5076,281.0679 519.7576,279.3179 C518.0076,277.5679 516.2576,279.3179 516.2576,279.3179 L514.0823,281.4932 C513.0008,280.6059 513.0008,280.6059 510.7888,281.2867 L511.0076,281.0679" fill="#8899A6"/><path d="M514.4172,291.5679 L510.9172,295.0679 C507.4172,298.5679 507.4172,298.5679 503.9172,295.0679 C500.4172,291.5679 503.9172,288.0679 503.9172,288.0679 L508.5838,283.4013 C512.0838,279.9013 512.0838,279.9013 515.5838,283.4013 C516.2401,284.0575 516.6467,284.9296 516.6467,284.9296 L514.6902,286.8832 C514.7689,286.0869 514.7689,286.0869 513.8333,285.1513 C513.8333,285.1513 512.0833,283.4013 510.3333,285.1513 L505.6666,289.8179 C503.9166,291.5679 503.9166,291.5679 505.6666,293.3179 C507.4166,295.0679 509.1666,293.3179 509.1666,293.3179 L511.3418,291.1427 C512.4233,292.0299 512.4233,292.0299 514.6353,291.3492 L514.4172,291.5679" fill="#8899A6"/><text fill="#000000" font-family="Verdana" font-size="14" lengthAdjust="spacing" textLength="200.8712" x="401.5" y="313.5339">user_type_name : varchar(100)</text></g><!--class type_definitions--><g class="entity" data-entity="type_definitions" data-source-line="28" data-uid="ent0005" id="entity_type_definitions"><rect fill="#FFFFFF" height="189.5896" rx="2.5" ry="2.5" style="stroke:#000000;stroke-width:1;" width="205.2832" x="205.5" y="412"/><text fill="#000000" font-family="Verdana" font-size="14" lengthAdjust="spacing" textLength="102.7316" x="256.7758" y="431.9659">TypeDefinitions</text><line style="stroke:#000000;stroke-width:1;" x1="206.5" x2="409.7832" y1="441.0679" y2="441.0679"/><ellipse cx="216.5" cy="457.9429" fill="#FFFFFF" rx="3" ry="3" style="stroke:#000000;stroke-width:1;"/><text fill="#000000" font-family="Verdana" font-size="14" lengthAdjust="spacing" textLength="88.2696" x="223.5" y="463.7159">define_id : int</text><path d="M334.4345,447.0594 C331.9238,444.5488 327.8533,444.5488 325.342,447.0594 C323.364,449.0381 322.9515,451.9822 324.0914,454.3715 L321.807,456.6553 C321.4337,457.0292 321.3165,457.5553 321.4425,458.0313 L320.2915,459.1817 C320.0121,458.9017 319.5612,458.9017 319.2818,459.1817 L318.272,460.192 C317.9926,460.4714 317.9926,460.9229 318.272,461.2023 L317.7663,461.7063 C317.4869,461.4275 317.0354,461.4275 316.7565,461.7063 L316.2514,462.2121 C315.972,462.4915 315.972,462.943 316.2514,463.2224 C316.2601,463.2318 316.2724,463.2341 316.2811,463.2417 C315.818,463.9353 315.8915,464.882 316.504,465.4951 C317.201,466.1922 318.3321,466.1922 319.0292,465.4951 L327.123,457.4019 C329.5129,458.5423 332.457,458.1293 334.435,456.1501 C336.9445,453.6406 336.9445,449.5701 334.4345,447.0594 M333.4247,450.0898 C332.8665,450.6475 331.9611,450.6475 331.404,450.0898 C330.8464,449.5322 330.8464,448.6274 331.404,448.0692 C331.9611,447.5115 332.8665,447.5115 333.4247,448.0692 C333.9824,448.6274 333.9824,449.5322 333.4247,450.0898" fill="#FED600"/><line style="stroke:#000000;stroke-width:1;" x1="206.5" x2="409.7832" y1="471.8179" y2="471.8179"/><text fill="#000000" font-family="Verdana" font-size="14" lengthAdjust="spacing" textLength="132.0335" x="211.5" y="494.4659">type_module_id : int</text><path d="M355.9235,481.0679 L359.4235,477.5679 C362.9235,474.0679 362.9235,474.0679 366.4235,477.5679 C369.9235,481.0679 366.4235,484.5679 366.4235,484.5679 L361.7568,489.2346 C358.2568,492.7346 358.2568,492.7346 354.7568,489.2346 C354.1005,488.5783 353.694,487.7063 353.694,487.7063 L355.6499,485.7533 C355.5711,486.5489 355.5711,486.5489 356.5068,487.4846 C356.5068,487.4846 358.2568,489.2346 360.0068,487.4846 L364.6735,482.8179 C366.4235,481.0679 366.4235,481.0679 364.6735,479.3179 C362.9235,477.5679 361.1735,479.3179 361.1735,479.3179 L358.9982,481.4932 C357.9167,480.6059 357.9167,480.6059 355.7047,481.2867 L355.9235,481.0679" fill="#8899A6"/><path d="M359.333,491.5679 L355.833,495.0679 C352.333,498.5679 352.333,498.5679 348.833,495.0679 C345.333,491.5679 348.833,488.0679 348.833,488.0679 L353.4997,483.4013 C356.9997,479.9013 356.9997,479.9013 360.4997,483.4013 C361.156,484.0575 361.5625,484.9296 361.5625,484.9296 L359.606,486.8832 C359.6848,486.0869 359.6848,486.0869 358.7491,485.1513 C358.7491,485.1513 356.9991,483.4013 355.2491,485.1513 L350.5825,489.8179 C348.8325,491.5679 348.8325,491.5679 350.5825,493.3179 C352.3325,495.0679 354.0825,493.3179 354.0825,493.3179 L356.2577,491.1427 C357.3392,492.0299 357.3392,492.0299 359.5512,491.3492 L359.333,491.5679" fill="#8899A6"/><text fill="#000000" font-family="Verdana" font-size="14" lengthAdjust="spacing" textLength="110.7396" x="211.5" y="517.2159">user_type_id : int</text><path d="M334.6295,503.8179 L338.1295,500.3179 C341.6295,496.8179 341.6295,496.8179 345.1295,500.3179 C348.6295,503.8179 345.1295,507.3179 345.1295,507.3179 L340.4629,511.9846 C336.9629,515.4846 336.9629,515.4846 333.4629,511.9846 C332.8066,511.3283 332.4,510.4563 332.4,510.4563 L334.356,508.5033 C334.2772,509.2989 334.2772,509.2989 335.2129,510.2346 C335.2129,510.2346 336.9629,511.9846 338.7129,510.2346 L343.3795,505.5679 C345.1295,503.8179 345.1295,503.8179 343.3795,502.0679 C341.6295,500.3179 339.8795,502.0679 339.8795,502.0679 L337.7043,504.2432 C336.6228,503.3559 336.6228,503.3559 334.4108,504.0367 L334.6295,503.8179" fill="#8899A6"/><path d="M338.0391,514.3179 L334.5391,517.8179 C331.0391,521.3179 331.0391,521.3179 327.5391,517.8179 C324.0391,514.3179 327.5391,510.8179 327.5391,510.8179 L332.2058,506.1513 C335.7058,502.6513 335.7058,502.6513 339.2058,506.1513 C339.862,506.8075 340.2686,507.6796 340.2686,507.6796 L338.3121,509.6332 C338.3909,508.8369 338.3909,508.8369 337.4552,507.9013 C337.4552,507.9013 335.7052,506.1513 333.9552,507.9013 L329.2885,512.5679 C327.5385,514.3179 327.5385,514.3179 329.2885,516.0679 C331.0385,517.8179 332.7885,516.0679 332.7885,516.0679 L334.9638,513.8927 C336.0453,514.7799 336.0453,514.7799 338.2573,514.0992 L338.0391,514.3179" fill="#8899A6"/><text fill="#000000" font-family="Verdana" font-size="14" lengthAdjust="spacing" textLength="184.4913" x="211.5" y="536.2839">member_type : varchar(100)</text><text fill="#000000" font-family="Verdana" font-size="14" lengthAdjust="spacing" textLength="193.2832" x="211.5" y="555.3518">member_name : varchar(100)</text><text fill="#000000" font-family="Verdana" font-size="14" lengthAdjust="spacing" textLength="53.6618" x="211.5" y="574.4197">dim : int</text><text fill="#000000" font-family="Verdana" font-size="14" lengthAdjust="spacing" textLength="142.9114" x="211.5" y="593.4876">bounds : varchar(100)</text></g><!--class user_type_instances--><g class="entity" data-entity="user_type_instances" data-source-line="39" data-uid="ent0006" id="entity_user_type_instances"><rect fill="#FFFFFF" height="132.3858" rx="2.5" ry="2.5" style="stroke:#000000;stroke-width:1;" width="204.0652" x="446" y="441"/><text fill="#000000" font-family="Verdana" font-size="14" lengthAdjust="spacing" textLength="125.0335" x="485.5159" y="460.9659">UserTypeInstances</text><line style="stroke:#000000;stroke-width:1;" x1="447" x2="649.0652" y1="470.0679" y2="470.0679"/><ellipse cx="457" cy="486.9429" fill="#FFFFFF" rx="3" ry="3" style="stroke:#000000;stroke-width:1;"/><text fill="#000000" font-family="Verdana" font-size="14" lengthAdjust="spacing" textLength="101.9336" x="464" y="492.7159">instance_id : int</text><path d="M588.5984,476.0594 C586.0877,473.5488 582.0172,473.5488 579.506,476.0594 C577.5279,478.0381 577.1155,480.9822 578.2553,483.3715 L575.971,485.6553 C575.5977,486.0292 575.4804,486.5553 575.6064,487.0313 L574.4555,488.1817 C574.1761,487.9017 573.7252,487.9017 573.4457,488.1817 L572.436,489.192 C572.1566,489.4714 572.1566,489.9229 572.436,490.2023 L571.9302,490.7063 C571.6508,490.4275 571.1993,490.4275 570.9205,490.7063 L570.4153,491.2121 C570.1359,491.4915 570.1359,491.943 570.4153,492.2224 C570.4241,492.2318 570.4363,492.2341 570.4451,492.2417 C569.9819,492.9353 570.0554,493.882 570.6679,494.4951 C571.365,495.1922 572.4961,495.1922 573.1932,494.4951 L581.2869,486.4019 C583.6768,487.5423 586.6209,487.1293 588.599,485.1501 C591.1085,482.6406 591.1085,478.5701 588.5984,476.0594 M587.5887,479.0898 C587.0304,479.6475 586.1251,479.6475 585.568,479.0898 C585.0103,478.5322 585.0103,477.6274 585.568,477.0692 C586.1251,476.5115 587.0304,476.5115 587.5887,477.0692 C588.1463,477.6274 588.1463,478.5322 587.5887,479.0898" fill="#FED600"/><line style="stroke:#000000;stroke-width:1;" x1="447" x2="649.0652" y1="500.8179" y2="500.8179"/><text fill="#000000" font-family="Verdana" font-size="14" lengthAdjust="spacing" textLength="127.3575" x="452" y="523.4659">inst_module_id : int</text><path d="M591.7475,510.0679 L595.2475,506.5679 C598.7475,503.0679 598.7475,503.0679 602.2475,506.5679 C605.7475,510.0679 602.2475,513.5679 602.2475,513.5679 L597.5808,518.2346 C594.0808,521.7346 594.0808,521.7346 590.5808,518.2346 C589.9246,517.5783 589.518,516.7063 589.518,516.7063 L591.4739,514.7533 C591.3951,515.5489 591.3951,515.5489 592.3308,516.4846 C592.3308,516.4846 594.0808,518.2346 595.8308,516.4846 L600.4975,511.8179 C602.2475,510.0679 602.2475,510.0679 600.4975,508.3179 C598.7475,506.5679 596.9975,508.3179 596.9975,508.3179 L594.8222,510.4932 C593.7407,509.6059 593.7407,509.6059 591.5287,510.2867 L591.7475,510.0679" fill="#8899A6"/><path d="M595.1571,520.5679 L591.6571,524.0679 C588.1571,527.5679 588.1571,527.5679 584.6571,524.0679 C581.1571,520.5679 584.6571,517.0679 584.6571,517.0679 L589.3237,512.4013 C592.8237,508.9013 592.8237,508.9013 596.3237,512.4013 C596.98,513.0575 597.3866,513.9296 597.3866,513.9296 L595.4301,515.8832 C595.5088,515.0869 595.5088,515.0869 594.5731,514.1513 C594.5731,514.1513 592.8231,512.4013 591.0731,514.1513 L586.4065,518.8179 C584.6565,520.5679 584.6565,520.5679 586.4065,522.3179 C588.1565,524.0679 589.9065,522.3179 589.9065,522.3179 L592.0817,520.1427 C593.1632,521.0299 593.1632,521.0299 595.3752,520.3492 L595.1571,520.5679" fill="#8899A6"/><text fill="#000000" font-family="Verdana" font-size="14" lengthAdjust="spacing" textLength="136.8495" x="452" y="546.2159">instance_type_id : int</text><path d="M601.2394,532.8179 L604.7394,529.3179 C608.2394,525.8179 608.2394,525.8179 611.7394,529.3179 C615.2394,532.8179 611.7394,536.3179 611.7394,536.3179 L607.0728,540.9846 C603.5728,544.4846 603.5728,544.4846 600.0728,540.9846 C599.4165,540.3283 599.0099,539.4563 599.0099,539.4563 L600.9659,537.5033 C600.8871,538.2989 600.8871,538.2989 601.8228,539.2346 C601.8228,539.2346 603.5728,540.9846 605.3228,539.2346 L609.9894,534.5679 C611.7394,532.8179 611.7394,532.8179 609.9894,531.0679 C608.2394,529.3179 606.4894,531.0679 606.4894,531.0679 L604.3142,533.2432 C603.2327,532.3559 603.2327,532.3559 601.0207,533.0367 L601.2394,532.8179" fill="#8899A6"/><path d="M604.649,543.3179 L601.149,546.8179 C597.649,550.3179 597.649,550.3179 594.149,546.8179 C590.649,543.3179 594.149,539.8179 594.149,539.8179 L598.8157,535.1513 C602.3157,531.6513 602.3157,531.6513 605.8157,535.1513 C606.4719,535.8075 606.8785,536.6796 606.8785,536.6796 L604.922,538.6332 C605.0008,537.8369 605.0008,537.8369 604.0651,536.9013 C604.0651,536.9013 602.3151,535.1513 600.5651,536.9013 L595.8984,541.5679 C594.1484,543.3179 594.1484,543.3179 595.8984,545.0679 C597.6484,546.8179 599.3984,545.0679 599.3984,545.0679 L601.5737,542.8927 C602.6552,543.7799 602.6552,543.7799 604.8672,543.0992 L604.649,543.3179" fill="#8899A6"/><text fill="#000000" font-family="Verdana" font-size="14" lengthAdjust="spacing" textLength="192.0652" x="452" y="565.2839">instance_name : varchar(100)</text></g><!--class subroutines--><g class="entity" data-entity="subroutines" data-source-line="47" data-uid="ent0007" id="entity_subroutines"><rect fill="#FFFFFF" height="109.6358" rx="2.5" ry="2.5" style="stroke:#000000;stroke-width:1;" width="221.0052" x="852.5" y="212"/><text fill="#000000" font-family="Verdana" font-size="14" lengthAdjust="spacing" textLength="79.7717" x="923.1167" y="231.9659">Subroutines</text><line style="stroke:#000000;stroke-width:1;" x1="853.5" x2="1072.5052" y1="241.0679" y2="241.0679"/><ellipse cx="863.5" cy="257.9429" fill="#FFFFFF" rx="3" ry="3" style="stroke:#000000;stroke-width:1;"/><text fill="#000000" font-family="Verdana" font-size="14" lengthAdjust="spacing" textLength="118.8735" x="870.5" y="263.7159">subroutine_id : int</text><path d="M1012.0384,247.0594 C1009.5277,244.5488 1005.4572,244.5488 1002.9459,247.0594 C1000.9679,249.0381 1000.5554,251.9822 1001.6953,254.3715 L999.4109,256.6553 C999.0376,257.0292 998.9204,257.5553 999.0464,258.0313 L997.8954,259.1817 C997.616,258.9017 997.1651,258.9017 996.8857,259.1817 L995.8759,260.192 C995.5965,260.4714 995.5965,260.9229 995.8759,261.2023 L995.3702,261.7063 C995.0908,261.4275 994.6393,261.4275 994.3604,261.7063 L993.8553,262.2121 C993.5759,262.4915 993.5759,262.943 993.8553,263.2224 C993.864,263.2318 993.8763,263.2341 993.885,263.2417 C993.4219,263.9353 993.4954,264.882 994.1079,265.4951 C994.8049,266.1922 995.936,266.1922 996.6331,265.4951 L1004.7269,257.4019 C1007.1168,258.5423 1010.0609,258.1293 1012.0389,256.1501 C1014.5484,253.6406 1014.5484,249.5701 1012.0384,247.0594 M1011.0286,250.0898 C1010.4704,250.6475 1009.565,250.6475 1009.0079,250.0898 C1008.4503,249.5322 1008.4503,248.6274 1009.0079,248.0692 C1009.565,247.5115 1010.4704,247.5115 1011.0286,248.0692 C1011.5863,248.6274 1011.5863,249.5322 1011.0286,250.0898" fill="#FED600"/><line style="stroke:#000000;stroke-width:1;" x1="853.5" x2="1072.5052" y1="271.8179" y2="271.8179"/><text fill="#000000" font-family="Verdana" font-size="14" lengthAdjust="spacing" textLength="209.0052" x="858.5" y="290.7839">subroutine_name : varchar(100)</text><text fill="#000000" font-family="Verdana" font-size="14" lengthAdjust="spacing" textLength="97.1176" x="858.5" y="313.5339">module_id : int</text><path d="M968.0076,300.1358 L971.5076,296.6358 C975.0076,293.1358 975.0076,293.1358 978.5076,296.6358 C982.0076,300.1358 978.5076,303.6358 978.5076,303.6358 L973.8409,308.3025 C970.3409,311.8025 970.3409,311.8025 966.8409,308.3025 C966.1847,307.6463 965.7781,306.7742 965.7781,306.7742 L967.734,304.8212 C967.6553,305.6168 967.6553,305.6168 968.5909,306.5525 C968.5909,306.5525 970.3409,308.3025 972.0909,306.5525 L976.7576,301.8858 C978.5076,300.1358 978.5076,300.1358 976.7576,298.3858 C975.0076,296.6358 973.2576,298.3858 973.2576,298.3858 L971.0823,300.5611 C970.0008,299.6738 970.0008,299.6738 967.7888,300.3546 L968.0076,300.1358" fill="#8899A6"/><path d="M971.4172,310.6358 L967.9172,314.1358 C964.4172,317.6358 964.4172,317.6358 960.9172,314.1358 C957.4172,310.6358 960.9172,307.1358 960.9172,307.1358 L965.5838,302.4692 C969.0838,298.9692 969.0838,298.9692 972.5838,302.4692 C973.2401,303.1254 973.6467,303.9975 973.6467,303.9975 L971.6902,305.9511 C971.7689,305.1548 971.7689,305.1548 970.8333,304.2192 C970.8333,304.2192 969.0833,302.4692 967.3333,304.2192 L962.6666,308.8858 C960.9166,310.6358 960.9166,310.6358 962.6666,312.3858 C964.4166,314.1358 966.1666,312.3858 966.1666,312.3858 L968.3418,310.2106 C969.4233,311.0978 969.4233,311.0978 971.6353,310.4171 L971.4172,310.6358" fill="#8899A6"/></g><!--class args--><g class="entity" data-entity="args" data-source-line="54" data-uid="ent0008" id="entity_args"><rect fill="#FFFFFF" height="147.7717" rx="2.5" ry="2.5" style="stroke:#000000;stroke-width:1;" width="171.1654" x="823.5" y="433"/><text fill="#000000" font-family="Verdana" font-size="14" lengthAdjust="spacing" textLength="30.0439" x="894.0607" y="452.9659">Args</text><line style="stroke:#000000;stroke-width:1;" x1="824.5" x2="993.6654" y1="462.0679" y2="462.0679"/><ellipse cx="834.5" cy="478.9429" fill="#FFFFFF" rx="3" ry="3" style="stroke:#000000;stroke-width:1;"/><text fill="#000000" font-family="Verdana" font-size="14" lengthAdjust="spacing" textLength="69.0337" x="841.5" y="484.7159">arg_id : int</text><path d="M933.1986,468.0594 C930.6879,465.5488 926.6174,465.5488 924.1061,468.0594 C922.1281,470.0381 921.7156,472.9822 922.8555,475.3715 L920.5711,477.6553 C920.1978,478.0292 920.0806,478.5553 920.2066,479.0313 L919.0556,480.1817 C918.7762,479.9017 918.3253,479.9017 918.0459,480.1817 L917.0361,481.192 C916.7567,481.4714 916.7567,481.9229 917.0361,482.2023 L916.5304,482.7063 C916.251,482.4275 915.7995,482.4275 915.5206,482.7063 L915.0155,483.2121 C914.7361,483.4915 914.7361,483.943 915.0155,484.2224 C915.0242,484.2318 915.0365,484.2341 915.0452,484.2417 C914.5821,484.9353 914.6556,485.882 915.2681,486.4951 C915.9651,487.1922 917.0962,487.1922 917.7933,486.4951 L925.8871,478.4019 C928.277,479.5423 931.2211,479.1293 933.1991,477.1501 C935.7086,474.6406 935.7086,470.5701 933.1986,468.0594 M932.1888,471.0898 C931.6306,471.6475 930.7252,471.6475 930.1681,471.0898 C929.6105,470.5322 929.6105,469.6274 930.1681,469.0692 C930.7252,468.5115 931.6306,468.5115 932.1888,469.0692 C932.7465,469.6274 932.7465,470.5322 932.1888,471.0898" fill="#FED600"/><line style="stroke:#000000;stroke-width:1;" x1="824.5" x2="993.6654" y1="492.8179" y2="492.8179"/><text fill="#000000" font-family="Verdana" font-size="14" lengthAdjust="spacing" textLength="118.8735" x="829.5" y="515.4659">subroutine_id : int</text><path d="M960.7635,502.0679 L964.2635,498.5679 C967.7635,495.0679 967.7635,495.0679 971.2635,498.5679 C974.7635,502.0679 971.2635,505.5679 971.2635,505.5679 L966.5969,510.2346 C963.0969,513.7346 963.0969,513.7346 959.5969,510.2346 C958.9406,509.5783 958.534,508.7063 958.534,508.7063 L960.4899,506.7533 C960.4112,507.5489 960.4112,507.5489 961.3469,508.4846 C961.3469,508.4846 963.0969,510.2346 964.8469,508.4846 L969.5135,503.8179 C971.2635,502.0679 971.2635,502.0679 969.5135,500.3179 C967.7635,498.5679 966.0135,500.3179 966.0135,500.3179 L963.8383,502.4932 C962.7568,501.6059 962.7568,501.6059 960.5448,502.2867 L960.7635,502.0679" fill="#8899A6"/><path d="M964.1731,512.5679 L960.6731,516.0679 C957.1731,519.5679 957.1731,519.5679 953.6731,516.0679 C950.1731,512.5679 953.6731,509.0679 953.6731,509.0679 L958.3398,504.4013 C961.8398,500.9013 961.8398,500.9013 965.3398,504.4013 C965.996,505.0575 966.4026,505.9296 966.4026,505.9296 L964.4461,507.8832 C964.5249,507.0869 964.5249,507.0869 963.5892,506.1513 C963.5892,506.1513 961.8392,504.4013 960.0892,506.1513 L955.4225,510.8179 C953.6725,512.5679 953.6725,512.5679 955.4225,514.3179 C957.1725,516.0679 958.9225,514.3179 958.9225,514.3179 L961.0978,512.1427 C962.1793,513.0299 962.1793,513.0299 964.3913,512.3492 L964.1731,512.5679" fill="#8899A6"/><text fill="#000000" font-family="Verdana" font-size="14" lengthAdjust="spacing" textLength="150.3734" x="829.5" y="534.5339">arg_type : varchar(100)</text><text fill="#000000" font-family="Verdana" font-size="14" lengthAdjust="spacing" textLength="159.1654" x="829.5" y="553.6018">arg_name : varchar(100)</text><text fill="#000000" font-family="Verdana" font-size="14" lengthAdjust="spacing" textLength="53.6618" x="829.5" y="572.6697">dim : int</text></g><!--class calltree--><g class="entity" data-entity="calltree" data-source-line="63" data-uid="ent0009" id="entity_calltree"><rect fill="#FFFFFF" height="113.3179" rx="2.5" ry="2.5" style="stroke:#000000;stroke-width:1;" width="205.5773" x="1030" y="450.5"/><text fill="#000000" font-family="Verdana" font-size="14" lengthAdjust="spacing" textLength="50.5538" x="1107.5118" y="470.4659">Calltree</text><line style="stroke:#000000;stroke-width:1;" x1="1031" x2="1234.5773" y1="479.5679" y2="479.5679"/><ellipse cx="1041" cy="496.4429" fill="#FFFFFF" rx="3" ry="3" style="stroke:#000000;stroke-width:1;"/><text fill="#000000" font-family="Verdana" font-size="14" lengthAdjust="spacing" textLength="90.6357" x="1048" y="502.2159">parent_id : int</text><path d="M1161.3005,485.5594 C1158.7898,483.0488 1154.7193,483.0488 1152.2081,485.5594 C1150.23,487.5381 1149.8176,490.4822 1150.9574,492.8715 L1148.6731,495.1553 C1148.2997,495.5292 1148.1825,496.0553 1148.3085,496.5313 L1147.1576,497.6817 C1146.8781,497.4017 1146.4272,497.4017 1146.1478,497.6817 L1145.1381,498.692 C1144.8586,498.9714 1144.8586,499.4229 1145.1381,499.7023 L1144.6323,500.2063 C1144.3529,499.9275 1143.9014,499.9275 1143.6226,500.2063 L1143.1174,500.7121 C1142.838,500.9915 1142.838,501.443 1143.1174,501.7224 C1143.1261,501.7318 1143.1384,501.7341 1143.1471,501.7417 C1142.684,502.4353 1142.7575,503.382 1143.37,503.9951 C1144.0671,504.6922 1145.1981,504.6922 1145.8952,503.9951 L1153.989,495.9019 C1156.3789,497.0423 1159.323,496.6293 1161.3011,494.6501 C1163.8106,492.1406 1163.8106,488.0701 1161.3005,485.5594 M1160.2907,488.5898 C1159.7325,489.1475 1158.8271,489.1475 1158.2701,488.5898 C1157.7124,488.0322 1157.7124,487.1274 1158.2701,486.5692 C1158.8271,486.0115 1159.7325,486.0115 1160.2907,486.5692 C1160.8484,487.1274 1160.8484,488.0322 1160.2907,488.5898" fill="#FED600"/><line style="stroke:#000000;stroke-width:1;" x1="1031" x2="1234.5773" y1="510.3179" y2="510.3179"/><text fill="#000000" font-family="Verdana" font-size="14" lengthAdjust="spacing" textLength="168.9373" x="1036" y="532.9659">parent_subroutine_id : int</text><path d="M1217.3273,519.5679 L1220.8273,516.0679 C1224.3273,512.5679 1224.3273,512.5679 1227.8273,516.0679 C1231.3273,519.5679 1227.8273,523.0679 1227.8273,523.0679 L1223.1607,527.7346 C1219.6607,531.2346 1219.6607,531.2346 1216.1607,527.7346 C1215.5044,527.0783 1215.0978,526.2063 1215.0978,526.2063 L1217.0537,524.2533 C1216.975,525.0489 1216.975,525.0489 1217.9107,525.9846 C1217.9107,525.9846 1219.6607,527.7346 1221.4107,525.9846 L1226.0773,521.3179 C1227.8273,519.5679 1227.8273,519.5679 1226.0773,517.8179 C1224.3273,516.0679 1222.5773,517.8179 1222.5773,517.8179 L1220.4021,519.9932 C1219.3206,519.1059 1219.3206,519.1059 1217.1086,519.7867 L1217.3273,519.5679" fill="#8899A6"/><path d="M1220.7369,530.0679 L1217.2369,533.5679 C1213.7369,537.0679 1213.7369,537.0679 1210.2369,533.5679 C1206.7369,530.0679 1210.2369,526.5679 1210.2369,526.5679 L1214.9036,521.9013 C1218.4036,518.4013 1218.4036,518.4013 1221.9036,521.9013 C1222.5598,522.5575 1222.9664,523.4296 1222.9664,523.4296 L1221.0099,525.3832 C1221.0887,524.5869 1221.0887,524.5869 1220.153,523.6513 C1220.153,523.6513 1218.403,521.9013 1216.653,523.6513 L1211.9863,528.3179 C1210.2363,530.0679 1210.2363,530.0679 1211.9863,531.8179 C1213.7363,533.5679 1215.4863,531.8179 1215.4863,531.8179 L1217.6616,529.6427 C1218.7431,530.5299 1218.7431,530.5299 1220.9551,529.8492 L1220.7369,530.0679" fill="#8899A6"/><text fill="#000000" font-family="Verdana" font-size="14" lengthAdjust="spacing" textLength="156.2954" x="1036" y="555.7159">child_subroutine_id : int</text><path d="M1204.6854,542.3179 L1208.1854,538.8179 C1211.6854,535.3179 1211.6854,535.3179 1215.1854,538.8179 C1218.6854,542.3179 1215.1854,545.8179 1215.1854,545.8179 L1210.5187,550.4846 C1207.0187,553.9846 1207.0187,553.9846 1203.5187,550.4846 C1202.8624,549.8283 1202.4559,548.9563 1202.4559,548.9563 L1204.4118,547.0033 C1204.333,547.7989 1204.333,547.7989 1205.2687,548.7346 C1205.2687,548.7346 1207.0187,550.4846 1208.7687,548.7346 L1213.4354,544.0679 C1215.1854,542.3179 1215.1854,542.3179 1213.4354,540.5679 C1211.6854,538.8179 1209.9354,540.5679 1209.9354,540.5679 L1207.7601,542.7432 C1206.6786,541.8559 1206.6786,541.8559 1204.4666,542.5367 L1204.6854,542.3179" fill="#8899A6"/><path d="M1208.0949,552.8179 L1204.5949,556.3179 C1201.0949,559.8179 1201.0949,559.8179 1197.5949,556.3179 C1194.0949,552.8179 1197.5949,549.3179 1197.5949,549.3179 L1202.2616,544.6513 C1205.7616,541.1513 1205.7616,541.1513 1209.2616,544.6513 C1209.9179,545.3075 1210.3244,546.1796 1210.3244,546.1796 L1208.3679,548.1332 C1208.4467,547.3369 1208.4467,547.3369 1207.511,546.4013 C1207.511,546.4013 1205.761,544.6513 1204.011,546.4013 L1199.3444,551.0679 C1197.5944,552.8179 1197.5944,552.8179 1199.3444,554.5679 C1201.0944,556.3179 1202.8444,554.5679 1202.8444,554.5679 L1205.0196,552.3927 C1206.1011,553.2799 1206.1011,553.2799 1208.3131,552.5992 L1208.0949,552.8179" fill="#8899A6"/></g><!--class local_arrays--><g class="entity" data-entity="local_arrays" data-source-line="70" data-uid="ent0010" id="entity_local_arrays"><rect fill="#FFFFFF" height="128.7038" rx="2.5" ry="2.5" style="stroke:#000000;stroke-width:1;" width="183.3313" x="1271.5" y="442.5"/><text fill="#000000" font-family="Verdana" font-size="14" lengthAdjust="spacing" textLength="76.2017" x="1325.0648" y="462.4659">LocalArrays</text><line style="stroke:#000000;stroke-width:1;" x1="1272.5" x2="1453.8313" y1="471.5679" y2="471.5679"/><ellipse cx="1282.5" cy="488.4429" fill="#FFFFFF" rx="3" ry="3" style="stroke:#000000;stroke-width:1;"/><text fill="#000000" font-family="Verdana" font-size="14" lengthAdjust="spacing" textLength="117.6835" x="1289.5" y="494.2159">local_array_id : int</text><path d="M1429.8484,477.5594 C1427.3377,475.0488 1423.2672,475.0488 1420.7559,477.5594 C1418.7779,479.5381 1418.3654,482.4822 1419.5053,484.8715 L1417.2209,487.1553 C1416.8476,487.5292 1416.7304,488.0553 1416.8564,488.5313 L1415.7054,489.6817 C1415.426,489.4017 1414.9751,489.4017 1414.6957,489.6817 L1413.6859,490.692 C1413.4065,490.9714 1413.4065,491.4229 1413.6859,491.7023 L1413.1802,492.2063 C1412.9008,491.9275 1412.4493,491.9275 1412.1704,492.2063 L1411.6653,492.7121 C1411.3859,492.9915 1411.3859,493.443 1411.6653,493.7224 C1411.674,493.7318 1411.6863,493.7341 1411.695,493.7417 C1411.2319,494.4353 1411.3054,495.382 1411.9179,495.9951 C1412.6149,496.6922 1413.746,496.6922 1414.4431,495.9951 L1422.5369,487.9019 C1424.9268,489.0423 1427.8709,488.6293 1429.8489,486.6501 C1432.3584,484.1406 1432.3584,480.0701 1429.8484,477.5594 M1428.8386,480.5898 C1428.2804,481.1475 1427.375,481.1475 1426.8179,480.5898 C1426.2603,480.0322 1426.2603,479.1274 1426.8179,478.5692 C1427.375,478.0115 1428.2804,478.0115 1428.8386,478.5692 C1429.3963,479.1274 1429.3963,480.0322 1428.8386,480.5898" fill="#FED600"/><line style="stroke:#000000;stroke-width:1;" x1="1272.5" x2="1453.8313" y1="502.3179" y2="502.3179"/><text fill="#000000" font-family="Verdana" font-size="14" lengthAdjust="spacing" textLength="118.8735" x="1277.5" y="524.9659">subroutine_id : int</text><path d="M1408.7635,511.5679 L1412.2635,508.0679 C1415.7635,504.5679 1415.7635,504.5679 1419.2635,508.0679 C1422.7635,511.5679 1419.2635,515.0679 1419.2635,515.0679 L1414.5969,519.7346 C1411.0969,523.2346 1411.0969,523.2346 1407.5969,519.7346 C1406.9406,519.0783 1406.534,518.2063 1406.534,518.2063 L1408.4899,516.2533 C1408.4112,517.0489 1408.4112,517.0489 1409.3469,517.9846 C1409.3469,517.9846 1411.0969,519.7346 1412.8469,517.9846 L1417.5135,513.3179 C1419.2635,511.5679 1419.2635,511.5679 1417.5135,509.8179 C1415.7635,508.0679 1414.0135,509.8179 1414.0135,509.8179 L1411.8383,511.9932 C1410.7568,511.1059 1410.7568,511.1059 1408.5448,511.7867 L1408.7635,511.5679" fill="#8899A6"/><path d="M1412.1731,522.0679 L1408.6731,525.5679 C1405.1731,529.0679 1405.1731,529.0679 1401.6731,525.5679 C1398.1731,522.0679 1401.6731,518.5679 1401.6731,518.5679 L1406.3398,513.9013 C1409.8398,510.4013 1409.8398,510.4013 1413.3398,513.9013 C1413.996,514.5575 1414.4026,515.4296 1414.4026,515.4296 L1412.4461,517.3832 C1412.5249,516.5869 1412.5249,516.5869 1411.5892,515.6513 C1411.5892,515.6513 1409.8392,513.9013 1408.0892,515.6513 L1403.4225,520.3179 C1401.6725,522.0679 1401.6725,522.0679 1403.4225,523.8179 C1405.1725,525.5679 1406.9225,523.8179 1406.9225,523.8179 L1409.0978,521.6427 C1410.1793,522.5299 1410.1793,522.5299 1412.3913,521.8492 L1412.1731,522.0679" fill="#8899A6"/><text fill="#000000" font-family="Verdana" font-size="14" lengthAdjust="spacing" textLength="171.3313" x="1277.5" y="544.0339">array_name : varchar(100)</text><text fill="#000000" font-family="Verdana" font-size="14" lengthAdjust="spacing" textLength="53.6618" x="1277.5" y="563.1018">dim : int</text></g><!--class global_vars--><g class="entity" data-entity="global_vars" data-source-line="78" data-uid="ent0011" id="entity_global_vars"><rect fill="#FFFFFF" height="155.1358" rx="2.5" ry="2.5" style="stroke:#000000;stroke-width:1;" width="155.5135" x="470" y="681"/><text fill="#000000" font-family="Verdana" font-size="14" lengthAdjust="spacing" textLength="71.0917" x="512.2109" y="700.9659">GlobalVars</text><line style="stroke:#000000;stroke-width:1;" x1="471" x2="624.5135" y1="710.0679" y2="710.0679"/><ellipse cx="481" cy="726.9429" fill="#FFFFFF" rx="3" ry="3" style="stroke:#000000;stroke-width:1;"/><text fill="#000000" font-family="Verdana" font-size="14" lengthAdjust="spacing" textLength="99.1196" x="488" y="732.7159">variable_id : int</text><path d="M609.7844,716.0594 C607.2738,713.5488 603.2033,713.5488 600.692,716.0594 C598.7139,718.0381 598.3015,720.9822 599.4413,723.3715 L597.157,725.6553 C596.7837,726.0292 596.6664,726.5553 596.7924,727.0313 L595.6415,728.1817 C595.3621,727.9017 594.9112,727.9017 594.6318,728.1817 L593.622,729.192 C593.3426,729.4714 593.3426,729.9229 593.622,730.2023 L593.1163,730.7063 C592.8368,730.4275 592.3853,730.4275 592.1065,730.7063 L591.6013,731.2121 C591.3219,731.4915 591.3219,731.943 591.6013,732.2224 C591.6101,732.2318 591.6223,732.2341 591.6311,732.2417 C591.1679,732.9353 591.2414,733.882 591.8539,734.4951 C592.551,735.1922 593.6821,735.1922 594.3792,734.4951 L602.4729,726.4019 C604.8628,727.5423 607.8069,727.1293 609.785,725.1501 C612.2945,722.6406 612.2945,718.5701 609.7844,716.0594 M608.7747,719.0898 C608.2164,719.6475 607.3111,719.6475 606.754,719.0898 C606.1963,718.5322 606.1963,717.6274 606.754,717.0692 C607.3111,716.5115 608.2164,716.5115 608.7747,717.0692 C609.3323,717.6274 609.3323,718.5322 608.7747,719.0898" fill="#FED600"/><line style="stroke:#000000;stroke-width:1;" x1="471" x2="624.5135" y1="740.8179" y2="740.8179"/><text fill="#000000" font-family="Verdana" font-size="14" lengthAdjust="spacing" textLength="118.8735" x="476" y="763.4659">subroutine_id : int</text><path d="M607.2635,750.0679 L610.7635,746.5679 C614.2635,743.0679 614.2635,743.0679 617.7635,746.5679 C621.2635,750.0679 617.7635,753.5679 617.7635,753.5679 L613.0969,758.2346 C609.5969,761.7346 609.5969,761.7346 606.0969,758.2346 C605.4406,757.5783 605.034,756.7063 605.034,756.7063 L606.9899,754.7533 C606.9112,755.5489 606.9112,755.5489 607.8469,756.4846 C607.8469,756.4846 609.5969,758.2346 611.3469,756.4846 L616.0135,751.8179 C617.7635,750.0679 617.7635,750.0679 616.0135,748.3179 C614.2635,746.5679 612.5135,748.3179 612.5135,748.3179 L610.3383,750.4932 C609.2568,749.6059 609.2568,749.6059 607.0448,750.2867 L607.2635,750.0679" fill="#8899A6"/><path d="M610.6731,760.5679 L607.1731,764.0679 C603.6731,767.5679 603.6731,767.5679 600.1731,764.0679 C596.6731,760.5679 600.1731,757.0679 600.1731,757.0679 L604.8398,752.4013 C608.3398,748.9013 608.3398,748.9013 611.8398,752.4013 C612.496,753.0575 612.9026,753.9296 612.9026,753.9296 L610.9461,755.8832 C611.0249,755.0869 611.0249,755.0869 610.0892,754.1513 C610.0892,754.1513 608.3392,752.4013 606.5892,754.1513 L601.9225,758.8179 C600.1725,760.5679 600.1725,760.5679 601.9225,762.3179 C603.6725,764.0679 605.4225,762.3179 605.4225,762.3179 L607.5978,760.1427 C608.6793,761.0299 608.6793,761.0299 610.8913,760.3492 L610.6731,760.5679" fill="#8899A6"/><text fill="#000000" font-family="Verdana" font-size="14" lengthAdjust="spacing" textLength="101.9336" x="476" y="786.2159">instance_id : int</text><path d="M590.3236,772.8179 L593.8236,769.3179 C597.3236,765.8179 597.3236,765.8179 600.8236,769.3179 C604.3236,772.8179 600.8236,776.3179 600.8236,776.3179 L596.1569,780.9846 C592.6569,784.4846 592.6569,784.4846 589.1569,780.9846 C588.5007,780.3283 588.0941,779.4563 588.0941,779.4563 L590.05,777.5033 C589.9712,778.2989 589.9712,778.2989 590.9069,779.2346 C590.9069,779.2346 592.6569,780.9846 594.4069,779.2346 L599.0736,774.5679 C600.8236,772.8179 600.8236,772.8179 599.0736,771.0679 C597.3236,769.3179 595.5736,771.0679 595.5736,771.0679 L593.3983,773.2432 C592.3168,772.3559 592.3168,772.3559 590.1048,773.0367 L590.3236,772.8179" fill="#8899A6"/><path d="M593.7332,783.3179 L590.2332,786.8179 C586.7332,790.3179 586.7332,790.3179 583.2332,786.8179 C579.7332,783.3179 583.2332,779.8179 583.2332,779.8179 L587.8998,775.1513 C591.3998,771.6513 591.3998,771.6513 594.8998,775.1513 C595.5561,775.8075 595.9627,776.6796 595.9627,776.6796 L594.0062,778.6332 C594.0849,777.8369 594.0849,777.8369 593.1492,776.9013 C593.1492,776.9013 591.3992,775.1513 589.6492,776.9013 L584.9826,781.5679 C583.2326,783.3179 583.2326,783.3179 584.9826,785.0679 C586.7326,786.8179 588.4826,785.0679 588.4826,785.0679 L590.6578,782.8927 C591.7393,783.7799 591.7393,783.7799 593.9513,783.0992 L593.7332,783.3179" fill="#8899A6"/><text fill="#000000" font-family="Verdana" font-size="14" lengthAdjust="spacing" textLength="103.1516" x="476" y="808.9659">member_id : int</text><path d="M591.5416,795.5679 L595.0416,792.0679 C598.5416,788.5679 598.5416,788.5679 602.0416,792.0679 C605.5416,795.5679 602.0416,799.0679 602.0416,799.0679 L597.3749,803.7346 C593.8749,807.2346 593.8749,807.2346 590.3749,803.7346 C589.7187,803.0783 589.3121,802.2063 589.3121,802.2063 L591.268,800.2533 C591.1892,801.0489 591.1892,801.0489 592.1249,801.9846 C592.1249,801.9846 593.8749,803.7346 595.6249,801.9846 L600.2916,797.3179 C602.0416,795.5679 602.0416,795.5679 600.2916,793.8179 C598.5416,792.0679 596.7916,793.8179 596.7916,793.8179 L594.6163,795.9932 C593.5348,795.1059 593.5348,795.1059 591.3228,795.7867 L591.5416,795.5679" fill="#8899A6"/><path d="M594.9512,806.0679 L591.4512,809.5679 C587.9512,813.0679 587.9512,813.0679 584.4512,809.5679 C580.9512,806.0679 584.4512,802.5679 584.4512,802.5679 L589.1178,797.9013 C592.6178,794.4013 592.6178,794.4013 596.1178,797.9013 C596.7741,798.5575 597.1807,799.4296 597.1807,799.4296 L595.2242,801.3832 C595.3029,800.5869 595.3029,800.5869 594.3672,799.6513 C594.3672,799.6513 592.6172,797.9013 590.8672,799.6513 L586.2006,804.3179 C584.4506,806.0679 584.4506,806.0679 586.2006,807.8179 C587.9506,809.5679 589.7006,807.8179 589.7006,807.8179 L591.8758,805.6427 C592.9573,806.5299 592.9573,806.5299 595.1693,805.8492 L594.9512,806.0679" fill="#8899A6"/><text fill="#000000" font-family="Verdana" font-size="14" lengthAdjust="spacing" textLength="117.2216" x="476" y="828.0339">status : varchar(2)</text></g><!--class L--><g class="entity" data-entity="L" data-source-line="87" data-uid="ent0012" id="entity_L"><rect fill="#FFFFFF" height="109.6358" rx="2.5" ry="2.5" style="stroke:#000000;stroke-width:1;" width="156.0616" x="525" y="12"/><text fill="#000000" font-family="Verdana" font-size="14" lengthAdjust="spacing" textLength="135.2675" x="535.3971" y="31.9659">Legend: Table Name</text><line style="stroke:#000000;stroke-width:1;" x1="526" x2="680.0616" y1="41.0679" y2="41.0679"/><ellipse cx="536" cy="57.9429" fill="#FFFFFF" rx="3" ry="3" style="stroke:#000000;stroke-width:1;"/><text fill="#000000" font-family="Verdana" font-size="14" lengthAdjust="spacing" textLength="107.4216" x="543" y="63.7159">Primary Key : int</text><path d="M673.0864,47.0594 C670.5757,44.5488 666.5052,44.5488 663.994,47.0594 C662.0159,49.0381 661.6035,51.9822 662.7433,54.3715 L660.459,56.6553 C660.0857,57.0292 659.9684,57.5553 660.0944,58.0313 L658.9435,59.1817 C658.6641,58.9017 658.2132,58.9017 657.9337,59.1817 L656.924,60.192 C656.6446,60.4714 656.6446,60.9229 656.924,61.2023 L656.4182,61.7063 C656.1388,61.4275 655.6873,61.4275 655.4085,61.7063 L654.9033,62.2121 C654.6239,62.4915 654.6239,62.943 654.9033,63.2224 C654.9121,63.2318 654.9243,63.2341 654.9331,63.2417 C654.4699,63.9353 654.5434,64.882 655.1559,65.4951 C655.853,66.1922 656.9841,66.1922 657.6812,65.4951 L665.7749,57.4019 C668.1648,58.5423 671.1089,58.1293 673.087,56.1501 C675.5965,53.6406 675.5965,49.5701 673.0864,47.0594 M672.0767,50.0898 C671.5184,50.6475 670.6131,50.6475 670.056,50.0898 C669.4983,49.5322 669.4983,48.6274 670.056,48.0692 C670.6131,47.5115 671.5184,47.5115 672.0767,48.0692 C672.6343,48.6274 672.6343,49.5322 672.0767,50.0898" fill="#FED600"/><line style="stroke:#000000;stroke-width:1;" x1="526" x2="680.0616" y1="71.8179" y2="71.8179"/><text fill="#000000" font-family="Verdana" font-size="14" lengthAdjust="spacing" textLength="105.9796" x="531" y="94.4659">Foreign Key : int</text><path d="M649.3696,81.0679 L652.8696,77.5679 C656.3696,74.0679 656.3696,74.0679 659.8696,77.5679 C663.3696,81.0679 659.8696,84.5679 659.8696,84.5679 L655.2029,89.2346 C651.7029,92.7346 651.7029,92.7346 648.2029,89.2346 C647.5467,88.5783 647.1401,87.7063 647.1401,87.7063 L649.096,85.7533 C649.0172,86.5489 649.0172,86.5489 649.9529,87.4846 C649.9529,87.4846 651.7029,89.2346 653.4529,87.4846 L658.1196,82.8179 C659.8696,81.0679 659.8696,81.0679 658.1196,79.3179 C656.3696,77.5679 654.6196,79.3179 654.6196,79.3179 L652.4443,81.4932 C651.3628,80.6059 651.3628,80.6059 649.1508,81.2867 L649.3696,81.0679" fill="#8899A6"/><path d="M652.7792,91.5679 L649.2792,95.0679 C645.7792,98.5679 645.7792,98.5679 642.2792,95.0679 C638.7792,91.5679 642.2792,88.0679 642.2792,88.0679 L646.9458,83.4013 C650.4458,79.9013 650.4458,79.9013 653.9458,83.4013 C654.6021,84.0575 655.0087,84.9296 655.0087,84.9296 L653.0522,86.8832 C653.1309,86.0869 653.1309,86.0869 652.1952,85.1513 C652.1952,85.1513 650.4452,83.4013 648.6952,85.1513 L644.0286,89.8179 C642.2786,91.5679 642.2786,91.5679 644.0286,93.3179 C645.7786,95.0679 647.5286,93.3179 647.5286,93.3179 L649.7038,91.1427 C650.7853,92.0299 650.7853,92.0299 652.9973,91.3492 L652.7792,91.5679" fill="#8899A6"/><text fill="#000000" font-family="Verdana" font-size="14" lengthAdjust="spacing" textLength="73.4577" x="531" y="113.5339">Field : Type</text></g><!--link modules to module_dependency--><g class="link" data-entity-1="modules" data-entity-2="module_dependency" data-source-line="94" data-uid="lnk13" id="link_modules_module_dependency"><path codeLine="94" d="M282.3701,83.9409 C204.2501,97.6309 112.69,119.5 88,152 C77.42,165.92 73.2246,165.856 75.8646,183.156" fill="none" id="modules-module_dependency" style="stroke:#000000;stroke-width:1;"/><line style="stroke:#000000;stroke-width:1;" x1="285.6196" x2="287.0005" y1="79.3105" y2="87.1904"/><line style="stroke:#000000;stroke-width:1;" x1="282.6646" x2="284.0455" y1="79.8283" y2="87.7082"/><line style="stroke:#000000;stroke-width:1;" x1="282.3701" x2="290.25" y1="83.9409" y2="82.56"/><line style="stroke:#000000;stroke-width:1;" x1="77.3732" x2="84.5113" y1="193.0416" y2="200.0449"/><line style="stroke:#000000;stroke-width:1;" x1="77.3732" x2="72.6487" y1="193.0416" y2="201.8551"/><line style="stroke:#000000;stroke-width:1;" x1="77.3732" x2="78.58" y1="193.0416" y2="200.95"/><ellipse cx="76.468" cy="187.1102" fill="none" rx="4" ry="4" style="stroke:#000000;stroke-width:1;"/><text fill="#000000" font-family="Verdana" font-size="13" lengthAdjust="spacing" textLength="46.735" x="89" y="166.897">module</text></g><!--link modules to module_dependency--><g class="link" data-entity-1="modules" data-entity-2="module_dependency" data-source-line="95" data-uid="lnk14" id="link_modules_module_dependency"><path codeLine="95" d="M282.7808,95.1504 C244.1208,108.2104 208.92,124.79 176,152 C159.85,165.35 155.6474,167.9847 144.7174,185.6847" fill="none" id="modules-module_dependency-1" style="stroke:#000000;stroke-width:1;"/><line style="stroke:#000000;stroke-width:1;" x1="285.2902" x2="287.8506" y1="90.0806" y2="97.6598"/><line style="stroke:#000000;stroke-width:1;" x1="282.448" x2="285.0084" y1="91.0407" y2="98.6199"/><line style="stroke:#000000;stroke-width:1;" x1="282.7808" x2="290.36" y1="95.1504" y2="92.59"/><line style="stroke:#000000;stroke-width:1;" x1="139.4633" x2="140.3651" y1="194.1932" y2="204.1525"/><line style="stroke:#000000;stroke-width:1;" x1="139.4633" x2="130.1549" y1="194.1932" y2="197.8475"/><line style="stroke:#000000;stroke-width:1;" x1="139.4633" x2="135.26" y1="194.1932" y2="201"/><ellipse cx="142.6158" cy="189.0881" fill="none" rx="4" ry="4" style="stroke:#000000;stroke-width:1;"/><text fill="#000000" font-family="Verdana" font-size="13" lengthAdjust="spacing" textLength="75.8291" x="177" y="166.897">dep_module</text></g><!--link modules to user_types--><g class="link" data-entity-1="modules" data-entity-2="user_types" data-source-line="96" data-uid="lnk15" id="link_modules_user_types"><path codeLine="96" d="M418.2394,117.9228 C434.9694,147.4928 444.5155,164.3841 462.4755,196.1241" fill="none" id="modules-user_types" style="stroke:#000000;stroke-width:1;"/><line style="stroke:#000000;stroke-width:1;" x1="412.7883" x2="419.7511" y1="116.4111" y2="112.4717"/><line style="stroke:#000000;stroke-width:1;" x1="414.2656" x2="421.2284" y1="119.0222" y2="115.0828"/><line style="stroke:#000000;stroke-width:1;" x1="418.2394" x2="414.3" y1="117.9228" y2="110.96"/><line style="stroke:#000000;stroke-width:1;" x1="467.4002" x2="476.562" y1="204.8274" y2="208.8352"/><line style="stroke:#000000;stroke-width:1;" x1="467.4002" x2="466.118" y1="204.8274" y2="214.7448"/><line style="stroke:#000000;stroke-width:1;" x1="467.4002" x2="471.34" y1="204.8274" y2="211.79"/><ellipse cx="464.4454" cy="199.6054" fill="none" rx="4" ry="4" style="stroke:#000000;stroke-width:1;"/><text fill="#000000" font-family="Verdana" font-size="13" lengthAdjust="spacing" textLength="46.735" x="447" y="166.897">module</text></g><!--link modules to type_definitions--><g class="link" data-entity-1="modules" data-entity-2="type_definitions" data-source-line="97" data-uid="lnk16" id="link_modules_type_definitions"><path codeLine="97" d="M344.8457,116.9165 C324.7357,141.3465 307.54,167.54 297,201 C275.51,269.23 277.1967,332.492 285.9967,393.902" fill="none" id="modules-type_definitions" style="stroke:#000000;stroke-width:1;"/><line style="stroke:#000000;stroke-width:1;" x1="344.2996" x2="350.4761" y1="111.2861" y2="116.3704"/><line style="stroke:#000000;stroke-width:1;" x1="342.3929" x2="348.5695" y1="113.6023" y2="118.6866"/><line style="stroke:#000000;stroke-width:1;" x1="344.8457" x2="349.93" y1="116.9165" y2="110.74"/><line style="stroke:#000000;stroke-width:1;" x1="287.4152" x2="294.4893" y1="403.8009" y2="410.8689"/><line style="stroke:#000000;stroke-width:1;" x1="287.4152" x2="282.6107" y1="403.8009" y2="412.5711"/><line style="stroke:#000000;stroke-width:1;" x1="287.4152" x2="288.55" y1="403.8009" y2="411.72"/><ellipse cx="286.5641" cy="397.8616" fill="none" rx="4" ry="4" style="stroke:#000000;stroke-width:1;"/><text fill="#000000" font-family="Verdana" font-size="13" lengthAdjust="spacing" textLength="79.1571" x="298" y="272.397">type_module</text></g><!--link modules to user_type_instances--><g class="link" data-entity-1="modules" data-entity-2="user_type_instances" data-source-line="98" data-uid="lnk17" id="link_modules_user_type_instances"><path codeLine="98" d="M482.0245,114.1784 C546.0445,147.0984 617.18,185.9 626,201 C669.98,276.27 637.8697,360.5456 600.6297,425.1456" fill="none" id="modules-user_type_instances" style="stroke:#000000;stroke-width:1;"/><line style="stroke:#000000;stroke-width:1;" x1="476.6381" x2="480.2964" y1="115.9064" y2="108.7919"/><line style="stroke:#000000;stroke-width:1;" x1="479.306" x2="482.9644" y1="117.2783" y2="110.1638"/><line style="stroke:#000000;stroke-width:1;" x1="482.0245" x2="474.91" y1="114.1784" y2="110.52"/><line style="stroke:#000000;stroke-width:1;" x1="595.6354" x2="596.8381" y1="433.8092" y2="443.7366"/><line style="stroke:#000000;stroke-width:1;" x1="595.6354" x2="586.4419" y1="433.8092" y2="437.7434"/><line style="stroke:#000000;stroke-width:1;" x1="595.6354" x2="591.64" y1="433.8092" y2="440.74"/><ellipse cx="598.632" cy="428.611" fill="none" rx="4" ry="4" style="stroke:#000000;stroke-width:1;"/><text fill="#000000" font-family="Verdana" font-size="13" lengthAdjust="spacing" textLength="74.8151" x="646" y="272.397">inst_module</text></g><!--link modules to subroutines--><g class="link" data-entity-1="modules" data-entity-2="subroutines" data-source-line="99" data-uid="lnk18" id="link_modules_subroutines"><path codeLine="99" d="M483.3611,113.618 C493.9911,117.898 497.42,118.84 508,122 C592.86,147.34 619.97,127.22 705,152 C756.83,167.11 795.5797,182.6932 841.4497,204.2532" fill="none" id="modules-subroutines" style="stroke:#000000;stroke-width:1;"/><line style="stroke:#000000;stroke-width:1;" x1="478.1565" x2="481.1445" y1="115.8345" y2="108.4135"/><line style="stroke:#000000;stroke-width:1;" x1="480.9394" x2="483.9274" y1="116.955" y2="109.5339"/><line style="stroke:#000000;stroke-width:1;" x1="483.3611" x2="475.94" y1="113.618" y2="110.63"/><line style="stroke:#000000;stroke-width:1;" x1="850.4999" x2="860.2923" y1="208.507" y2="206.4799"/><line style="stroke:#000000;stroke-width:1;" x1="850.4999" x2="855.1877" y1="208.507" y2="217.3401"/><line style="stroke:#000000;stroke-width:1;" x1="850.4999" x2="857.74" y1="208.507" y2="211.91"/><ellipse cx="845.0698" cy="205.9547" fill="none" rx="4" ry="4" style="stroke:#000000;stroke-width:1;"/><text fill="#000000" font-family="Verdana" font-size="13" lengthAdjust="spacing" textLength="46.735" x="757" y="166.897">module</text></g><!--link user_types to type_definitions--><g class="link" data-entity-1="user_types" data-entity-2="type_definitions" data-source-line="101" data-uid="lnk19" id="link_user_types_type_definitions"><path codeLine="101" d="M452.9249,328.2105 C431.3449,354.6805 421.151,367.1765 396.361,397.5965" fill="none" id="user_types-type_definitions" style="stroke:#000000;stroke-width:1;"/><line style="stroke:#000000;stroke-width:1;" x1="452.3522" x2="458.5527" y1="322.5827" y2="327.6378"/><line style="stroke:#000000;stroke-width:1;" x1="450.4566" x2="456.6571" y1="324.9079" y2="329.963"/><line style="stroke:#000000;stroke-width:1;" x1="452.9249" x2="457.98" y1="328.2105" y2="322.01"/><line style="stroke:#000000;stroke-width:1;" x1="390.0438" x2="389.6412" y1="405.3485" y2="415.3403"/><line style="stroke:#000000;stroke-width:1;" x1="390.0438" x2="380.3388" y1="405.3485" y2="407.7597"/><line style="stroke:#000000;stroke-width:1;" x1="390.0438" x2="384.99" y1="405.3485" y2="411.55"/><ellipse cx="393.8341" cy="400.6973" fill="none" rx="4" ry="4" style="stroke:#000000;stroke-width:1;"/><text fill="#000000" font-family="Verdana" font-size="13" lengthAdjust="spacing" textLength="59.384" x="423" y="377.897">user_type</text></g><!--link user_types to user_type_instances--><g class="link" data-entity-1="user_types" data-entity-2="user_type_instances" data-source-line="102" data-uid="lnk20" id="link_user_types_user_type_instances"><path codeLine="102" d="M513.9579,329.8647 C520.7679,365.1047 524.7639,385.7971 531.9739,423.0971" fill="none" id="user_types-user_type_instances" style="stroke:#000000;stroke-width:1;"/><line style="stroke:#000000;stroke-width:1;" x1="509.2716" x2="517.1263" y1="326.6963" y2="325.1784"/><line style="stroke:#000000;stroke-width:1;" x1="509.8408" x2="517.6955" y1="329.6418" y2="328.1239"/><line style="stroke:#000000;stroke-width:1;" x1="513.9579" x2="512.44" y1="329.8647" y2="322.01"/><line style="stroke:#000000;stroke-width:1;" x1="533.8717" x2="541.281" y1="432.9154" y2="439.6313"/><line style="stroke:#000000;stroke-width:1;" x1="533.8717" x2="529.499" y1="432.9154" y2="441.9087"/><line style="stroke:#000000;stroke-width:1;" x1="533.8717" x2="535.39" y1="432.9154" y2="440.77"/><ellipse cx="532.733" cy="427.0244" fill="none" rx="4" ry="4" style="stroke:#000000;stroke-width:1;"/><text fill="#000000" font-family="Verdana" font-size="13" lengthAdjust="spacing" textLength="83.6291" x="524" y="377.897">instance_type</text></g><!--link subroutines to args--><g class="link" data-entity-1="subroutines" data-entity-2="args" data-source-line="104" data-uid="lnk21" id="link_subroutines_args"><path codeLine="104" d="M919.7603,329.1556 C912.4503,341.9456 909.88,349.01 906,363 C899.84,385.26 897.8782,392.2225 898.7282,414.9825" fill="none" id="subroutines-args" style="stroke:#000000;stroke-width:1;"/><line style="stroke:#000000;stroke-width:1;" x1="918.2723" x2="925.218" y1="323.698" y2="327.6677"/><line style="stroke:#000000;stroke-width:1;" x1="916.7837" x2="923.7293" y1="326.3026" y2="330.2723"/><line style="stroke:#000000;stroke-width:1;" x1="919.7603" x2="923.73" y1="329.1556" y2="322.21"/><line style="stroke:#000000;stroke-width:1;" x1="899.1014" x2="905.3958" y1="424.9756" y2="432.7461"/><line style="stroke:#000000;stroke-width:1;" x1="899.1014" x2="893.4042" y1="424.9756" y2="433.1939"/><line style="stroke:#000000;stroke-width:1;" x1="899.1014" x2="899.4" y1="424.9756" y2="432.97"/><ellipse cx="898.8775" cy="418.9798" fill="none" rx="4" ry="4" style="stroke:#000000;stroke-width:1;"/><text fill="#000000" font-family="Verdana" font-size="13" lengthAdjust="spacing" textLength="66.9371" x="907" y="377.897">subroutine</text></g><!--link subroutines to calltree--><g class="link" data-entity-1="subroutines" data-entity-2="calltree" data-source-line="105" data-uid="lnk22" id="link_subroutines_calltree"><path codeLine="105" d="M1080.2712,320.2539 C1098.8212,333.0139 1109.25,344.11 1121,363 C1136.99,388.7 1140.9707,404.2259 1140.2507,432.3459" fill="none" id="subroutines-calltree" style="stroke:#000000;stroke-width:1;"/><line style="stroke:#000000;stroke-width:1;" x1="1074.7087" x2="1079.2425" y1="321.2825" y2="314.6913"/><line style="stroke:#000000;stroke-width:1;" x1="1077.1804" x2="1081.7142" y1="322.9828" y2="316.3916"/><line style="stroke:#000000;stroke-width:1;" x1="1080.2712" x2="1073.68" y1="320.2539" y2="315.72"/><line style="stroke:#000000;stroke-width:1;" x1="1139.9948" x2="1145.788" y1="442.3426" y2="450.4936"/><line style="stroke:#000000;stroke-width:1;" x1="1139.9948" x2="1133.792" y1="442.3426" y2="450.1864"/><line style="stroke:#000000;stroke-width:1;" x1="1139.9948" x2="1139.79" y1="442.3426" y2="450.34"/><ellipse cx="1140.1483" cy="436.3446" fill="none" rx="4" ry="4" style="stroke:#000000;stroke-width:1;"/><text fill="#000000" font-family="Verdana" font-size="13" lengthAdjust="spacing" textLength="113.4251" x="1130" y="377.897">parent_subroutine</text></g><!--link subroutines to calltree--><g class="link" data-entity-1="subroutines" data-entity-2="calltree" data-source-line="106" data-uid="lnk23" id="link_subroutines_calltree"><path codeLine="106" d="M983.2083,329.5581 C990.7783,349.2681 997.86,363.72 1010,382 C1026.27,406.5 1034.977,417.6793 1055.537,437.7093" fill="none" id="subroutines-calltree-1" style="stroke:#000000;stroke-width:1;"/><line style="stroke:#000000;stroke-width:1;" x1="978.0401" x2="985.5082" y1="327.2582" y2="324.3899"/><line style="stroke:#000000;stroke-width:1;" x1="979.1157" x2="986.5838" y1="330.0588" y2="327.1905"/><line style="stroke:#000000;stroke-width:1;" x1="983.2083" x2="980.34" y1="329.5581" y2="322.09"/><line style="stroke:#000000;stroke-width:1;" x1="1062.6998" x2="1072.6169" y1="444.6875" y2="445.9723"/><line style="stroke:#000000;stroke-width:1;" x1="1062.6998" x2="1064.2431" y1="444.6875" y2="454.5677"/><line style="stroke:#000000;stroke-width:1;" x1="1062.6998" x2="1068.43" y1="444.6875" y2="450.27"/><ellipse cx="1058.4021" cy="440.5006" fill="none" rx="4" ry="4" style="stroke:#000000;stroke-width:1;"/><text fill="#000000" font-family="Verdana" font-size="13" lengthAdjust="spacing" textLength="101.6861" x="1011" y="377.897">child_subroutine</text></g><!--link subroutines to local_arrays--><g class="link" data-entity-1="subroutines" data-entity-2="local_arrays" data-source-line="107" data-uid="lnk24" id="link_subroutines_local_arrays"><path codeLine="107" d="M1081.4322,290.0761 C1138.4422,304.2961 1199.12,325.72 1252,363 C1281.41,383.74 1296.5446,399.6821 1315.5346,427.3921" fill="none" id="subroutines-local_arrays" style="stroke:#000000;stroke-width:1;"/><line style="stroke:#000000;stroke-width:1;" x1="1076.583" x2="1078.5192" y1="292.9892" y2="285.227"/><line style="stroke:#000000;stroke-width:1;" x1="1079.4938" x2="1081.43" y1="293.7152" y2="285.953"/><line style="stroke:#000000;stroke-width:1;" x1="1081.4322" x2="1073.67" y1="290.0761" y2="288.14"/><line style="stroke:#000000;stroke-width:1;" x1="1321.1876" x2="1330.6593" y1="435.6409" y2="438.8482"/><line style="stroke:#000000;stroke-width:1;" x1="1321.1876" x2="1320.7607" y1="435.6409" y2="445.6318"/><line style="stroke:#000000;stroke-width:1;" x1="1321.1876" x2="1325.71" y1="435.6409" y2="442.24"/><ellipse cx="1317.7958" cy="430.6916" fill="none" rx="4" ry="4" style="stroke:#000000;stroke-width:1;"/><text fill="#000000" font-family="Verdana" font-size="13" lengthAdjust="spacing" textLength="66.9371" x="1275" y="377.897">subroutine</text></g><!--link subroutines to global_vars--><g class="link" data-entity-1="subroutines" data-entity-2="global_vars" data-source-line="108" data-uid="lnk25" id="link_subroutines_global_vars"><path codeLine="108" d="M845.4246,323.5948 C804.9246,347.0148 768.52,374.05 738,412 C681.61,482.13 711.55,523.25 668,602 C652.98,629.16 644.5679,642.4705 625.6679,666.6405" fill="none" id="subroutines-global_vars" style="stroke:#000000;stroke-width:1;"/><line style="stroke:#000000;stroke-width:1;" x1="846.8849" x2="850.8897" y1="318.1297" y2="325.0551"/><line style="stroke:#000000;stroke-width:1;" x1="844.2878" x2="848.2926" y1="319.6315" y2="326.5569"/><line style="stroke:#000000;stroke-width:1;" x1="845.4246" x2="852.35" y1="323.5948" y2="319.59"/><line style="stroke:#000000;stroke-width:1;" x1="619.5079" x2="619.3065" y1="674.518" y2="684.516"/><line style="stroke:#000000;stroke-width:1;" x1="619.5079" x2="609.8535" y1="674.518" y2="677.124"/><line style="stroke:#000000;stroke-width:1;" x1="619.5079" x2="614.58" y1="674.518" y2="680.82"/><ellipse cx="623.2039" cy="669.7915" fill="none" rx="4" ry="4" style="stroke:#000000;stroke-width:1;"/><text fill="#000000" font-family="Verdana" font-size="13" lengthAdjust="spacing" textLength="66.9371" x="739" y="512.397">subroutine</text></g><!--link user_type_instances to global_vars--><g class="link" data-entity-1="user_type_instances" data-entity-2="global_vars" data-source-line="110" data-uid="lnk26" id="link_user_type_instances_global_vars"><path codeLine="110" d="M548,581.23 C548,614.15 548,628.29 548,662.69" fill="none" id="user_type_instances-global_vars" style="stroke:#000000;stroke-width:1;"/><line style="stroke:#000000;stroke-width:1;" x1="544" x2="552" y1="577.23" y2="577.23"/><line style="stroke:#000000;stroke-width:1;" x1="544" x2="552" y1="580.23" y2="580.23"/><line style="stroke:#000000;stroke-width:1;" x1="548" x2="548" y1="581.23" y2="573.23"/><line style="stroke:#000000;stroke-width:1;" x1="548" x2="554" y1="672.69" y2="680.69"/><line style="stroke:#000000;stroke-width:1;" x1="548" x2="542" y1="672.69" y2="680.69"/><line style="stroke:#000000;stroke-width:1;" x1="548" x2="548" y1="672.69" y2="680.69"/><ellipse cx="548" cy="666.69" fill="none" rx="4" ry="4" style="stroke:#000000;stroke-width:1;"/><text fill="#000000" font-family="Verdana" font-size="13" lengthAdjust="spacing" textLength="51.207" x="549" y="646.897">instance</text></g><!--link type_definitions to global_vars--><g class="link" data-entity-1="type_definitions" data-entity-2="global_vars" data-source-line="111" data-uid="lnk27" id="link_type_definitions_global_vars"><path codeLine="111" d="M404.2769,608.0947 C429.2369,634.0347 437.9602,643.1087 461.8302,667.9187" fill="none" id="type_definitions-global_vars" style="stroke:#000000;stroke-width:1;"/><line style="stroke:#000000;stroke-width:1;" x1="398.6211" x2="404.3858" y1="607.9858" y2="602.4389"/><line style="stroke:#000000;stroke-width:1;" x1="400.7012" x2="406.4659" y1="610.1476" y2="604.6007"/><line style="stroke:#000000;stroke-width:1;" x1="404.2769" x2="398.73" y1="608.0947" y2="602.33"/><line style="stroke:#000000;stroke-width:1;" x1="468.7634" x2="478.6338" y1="675.125" y2="676.7301"/><line style="stroke:#000000;stroke-width:1;" x1="468.7634" x2="469.9862" y1="675.125" y2="685.0499"/><line style="stroke:#000000;stroke-width:1;" x1="468.7634" x2="474.31" y1="675.125" y2="680.89"/><ellipse cx="464.6035" cy="670.8012" fill="none" rx="4" ry="4" style="stroke:#000000;stroke-width:1;"/><text fill="#000000" font-family="Verdana" font-size="13" lengthAdjust="spacing" textLength="52.338" x="443" y="646.897">member</text></g><!--SRC=[fPLDRzGm48Rl_XKc70f8AnME4KAgM1KX2aAqz1fDaY5hwZWhsq6AMluxapWVPkDDjkrbvV6yutaysHc_i3iiaUyb2CLs8aUU2Pr9P8oTyIrOIC4Wlyv81NmheD1GCeRA2jlmw6kLrn9DnC7mqgtvFUFyZJCIaVEO2sNv-vT59VFu3flu0_at6_hfDGeeVyp_WCvse5-zFJz_pVuUfjZY7bMEAckyN4a-xhgiatrIvaaJIw7kEZyTaIoug_GtPZQf3UOBp3yDwfjctnU6n3gnhUaeH_l9aDC9AyLh8RRuIoXXHQKSJXUNJvj3wMXZXQYBF0ahv2snJ7l_8V7e35s7leaetN6qJgjQvUQ4sdzMneBA3hz18ePzT-_1NBvvgrgw-NZAqTkFYfKlTbsdkgejVGi7RYRR0KyRoyYUBbpLezVnQ2vquJ205Yu_hKvE72f46n_-3xIUjJ-0n_OHfBGQiUFBUiCnxa6JQXcprwpGPZiXysMHXtHL4SU5rj2ugidMJg3RS6JUpZEhs9xmY6fzabKAyXQq8oiwCw787enM0bA9pw8ADDEi_qCkYhArtzJlkfx891X3LSM2fdhCRre-_etkt5tXoe5_rw84tV0ls2o0NrOQHQ5yrPJ-Kg1igTgnGNdF-0-KqCt6dTWRDZni3m-RJNKVU7jY7hdDw2JjzCJCzDvJSVpGsG0dgJUQZn_gpJuAyMRQBCIVEXu8y_WMO4PL50XOe1adA6No2Vh8RWQHT7958Tau2aWwQ_BLYCE63mRyrzVhH7wp7QXPg1pXiC4ViLdDmm6kuQ9_]--></g></svg>