<?xml version="1.0" encoding="UTF-8"?>
<svg width="1200pt" height="1200pt" version="1.1" viewBox="0 0 1200 1200" xmlns="http://www.w3.org/2000/svg">
 <path d="m600 0c-90.969 0-177.14 20.371-254.39 56.629 0.054688-0.29688 0.19141-0.55469 0.21484-0.86719-7.7969 3.6289-15.512 7.418-23.156 11.383 0.39062 0.12109 0.85156 0.16406 1.2734 0.25781-1.4062 0.74609-2.8555 1.4336-4.25 2.1914-0.13672-0.23047-0.32422-0.36719-0.43359-0.59375-4.4258 2.3281-8.8398 4.6406-13.184 7.0781 0.43359 0.082031 0.82422 0.20312 1.2461 0.28516-4.6289 2.5859-9.2305 5.2109-13.777 7.918-0.24219-0.19141-0.48828-0.29688-0.71875-0.5 2.5859-1.5156 5.1289-3.0859 7.7148-4.5625-2.6133 1.5156-5.2656 3.0195-7.8633 4.5625 0.011718 0.011719 0.039062 0.027344 0.054687 0.039062-1.082 0.64844-2.1797 1.3008-3.2617 1.9492 0.5-0.054687 0.77344 0.13672 1.2031 0.17578-2.3398 1.4062-4.6172 2.8945-6.9297 4.332 0.16406-0.47266 0.25781-0.89453 0.43359-1.3789 0 0-0.011719 0-0.027344 0.011718 0-0.011718 0.011718-0.027344 0.011718-0.039062-0.41797 0.26953-0.85156 0.55469-1.3125 0.82422 0.25781-0.16406 0.5-0.29687 0.77344-0.44531-0.92188 0.58203-1.8672 1.1641-2.8008 1.7461 0.28516-0.19141 0.55469-0.36719 0.83984-0.54297-2.625 1.625-5.2773 3.2617-7.8789 4.9414 1.7344-1.1094 3.4922-2.1797 5.2383-3.25-1.7461 1.1094-3.4648 2.2461-5.2109 3.3828 0 0.32422 0.066406 0.71875 0.082031 1.0547-0.16406 0.10938-0.32422 0.21484-0.5 0.32422-0.16406-0.25781-0.26953-0.55469-0.47266-0.78516 0.28516-0.19141 0.55469-0.37891 0.83984-0.57031 0.027343-0.054687 0-0.10938 0-0.14844-0.3125 0.20312-0.63672 0.41797-0.96094 0.63672 0.039063 0.011719 0.054688 0.066407 0.066407 0.10938-16.5 10.691-32.469 22.117-47.805 34.352 0.12109 0.35156 0.32422 0.67578 0.46094 1-137.26 109.96-225.27 278.9-225.27 468.5 0 331.36 268.52 600 599.74 600 331.23 0 599.76-268.64 599.76-600 0-331.38-268.53-600-599.76-600zm430.57 200.12c0.60938 1.0156 1.3281 1.9219 1.8828 2.9648-15.672 4.5742-14.359-7.7969-27.707-5.5234 5.6016 9.6758 9.5977 29.668 22.156 16.605 1.1094 7.3906 7.5938 2.3555 13.48-3.168 85.066 96.312 139.12 220.66 146.37 357.48h-21.492c34.918 54.289-39.574 77.691-71.953 99.656 9.8672 22.914 31.672-7.0117 44.273 5.5234-5.4414 55.492-44.652 77.109-71.953 110.74 1.3789 42.078 2.9375 53.395 0 94.109-56.277 38.438-59.934 157-149.46 143.92-14.836-40.523-15.418-95.324-33.227-132.86 36.883-53.109-15.012-88.641-11.07-154.99-7.4297-9.1758-29.047-4.1289-27.68-22.156-34.527 11.926-59.352 7.0508-94.109 11.07-24.93-13.82-34.918-42.582-55.359-60.879 18.664-53.637-11.762-110.5 49.836-132.87-2.9648-65.848 101.78-76.281 143.92-60.879v22.129c21.723 4.1406 32.035 19.668 49.836 27.68-0.92188-13.859 8.5391-17.34 16.633-22.156 16.891 10.734 12.711 25.961 38.75 16.633 9.7305 3.168 32.512-6.6992 33.199 5.5352 8.2148-4.6953 8.0117-17.824 11.07-27.691-5.0742-18.895-34.082-13.898-49.863-22.129-7.5664-7.0664-7.5664-26.148 0-33.227-35.246-2.5703-5.6836 26.73-27.652 33.227h-11.07c4.7656-17.676-8.7031-17.121-11.07-27.68-16.473-1.3672-21.02 37.504-38.723 16.605 39.387-6.4844-22.305-55.738-27.68-33.215-0.94922-8.2852 1.9766-20.426-5.5508-22.145-19.668 6.1328-32.414 19.246-49.836 27.68v22.145c-4.8867 2.4766-9.8789 4.8711-11.043 11.059h-49.863c-0.26953-7.0664-7.0508-7.6602-5.5234-16.633 8.1484-12.156-0.63672-41.242 16.633-44.273 15.918-7.7148 28.125 15.09 33.199 0h5.5508c2.4648-20.883-10.949-25.988-16.633-38.738 0.60938-10.449 18.328-3.8438 16.633-16.621 47.184-2.6133 48.562-51.082 77.516-71.953-4.6562 6.4297-7.3242 14.836-5.5234 27.664 20.383 5.0898 10.043-29.195 5.5234-33.215-12.844-1.7578-21.25 0.87891-27.68 5.5508-7.6875-7.0938-3.3828-26.137-11.07-33.242 35-31.414 45.492-87.367 105.18-94.094 17.812 4.3711 33.863 10.504 47.645 18.934 11.59 10.656 22.754 21.836 33.516 33.422zm-247.34 63.887c28.844 6.2109 20.855 49.293 44.301 60.895v11.07c-13.316-2.2617-12.031 10.125-27.68 5.5508-10.461-1.2461-12.207 6.2109-22.129 5.5234 22.398-29.457-6.3906-53.805 5.5078-83.039zm-5.4961 66.414h-27.707c-2.1914-20.641 4.4375-32.484 22.156-33.215 6.3906 6.5508 6.2695 19.586 5.5508 33.215zm-88.586-116.24c-4.8867-11.695-16.863-16.363-16.633-33.215 22.156 5.4258 33.254 5.4258 55.383 0 1.0547 4.4805 5.5781 5.5234 5.5234 11.059-0.75781 21.387-21.613 22.688-44.273 22.156zm-33.227 33.215c-8.4883 22.875-35.488 27.23-55.344 38.738-6.2812-1.0273-3.0977-5.5508 0-5.5234-0.83984-10.23-18.746-3.4102-22.156-11.07-5.5625-67.66 83.551-83.363 77.5-22.145zm420.75 692c-13.875-42.539 16.758-59.484 33.199-94.109 16.363 13.141-6.6602 33.5-5.5234 49.809-5.9688 10.258-13.426 19.086-16.363 32.43-0.21484 0.28516-0.39062 0.60938-0.60938 0.92188-5.8984 1.3008-8.3242 6.0898-10.703 10.949zm-386.49-920.38c-0.36719 0.47266-0.52734 0.83984-1 1.3516 3.4922 0.71875 7.6328 0.75781 11.977 0.60937 9.2852 1.6094 18.477 3.4258 27.598 5.4688-8.9336 4.0742-11.344 14.684-22.914 16.066-4.0195 16.918 5.6289 20.18 5.4961 33.215-9.5156 2.1797-14.199-8.2031-16.605 0 19.004 24.5-27.18 45.816 0 66.43-40.32 20.586-97.125 24.676-121.8 60.895-11.965 13.848-17.461 34.203-33.215 44.273-39.496-11.371-47.129-76.555-35.246-101.57 1.1367-0.82422 1.9492-1.9766 1.9766-3.5586-0.71875 1.0703-1.3672 2.2617-1.9766 3.5469-2.9102 2.043-8.0664 1.3945-9.043-3.6016 25.961-73.48-63.344-51.934-77.516-94.109 9.2305-7.375 35.246 2.0156 33.215-16.605-0.78516 0.10547-1.4727 0.30859-2.2734 0.40234 48.227-12.805 98.859-19.719 151.1-19.719 30.699 0 60.801 2.3672 90.227 6.9023zm-366.34 62.031c11.207 3.6562 20.492 5.7812 33.133-5.25-7.2266-0.43359-15.848 0.51562-23.117 0.12109 26.109-13.293 53.312-24.688 81.492-34.012-21.465 11.113-35.664 29.492-47.25 50.473-25.863 2.5156-46.02 5.0742-62.355-1.1523 6-3.4922 11.996-6.9297 18.098-10.18zm-26.566 15.035c1.2461 2.668 3.6016 4.2227 9.9219 1.8008-5.8867 12.547-16.785 20.113-33.215 22.145 4.1133-5.4141 5.9023-9.6914 6.8203-13.52 5.4531-3.5352 10.895-7.082 16.473-10.426zm-64.023 44.734c0.66406 0.46094 1.3008 0.96094 1.9766 1.3672-1.3125 15.266-20.574 12.641-27.664 22.156 37.125 11.004 38.656-33.176 60.895-5.5508 2.2734-13.316-10.109-12.031-5.5234-27.652 7.0664-0.29688 7.6602-7.1055 16.621-5.5352 2.707 31.551 20.652 17.324 27.664 38.738 1.1758-6.2109 6.1445-8.6367 11.07-11.059 5.8867-20.641-20.777-8.7578-16.605-27.68 0.77344-30.617 46.734-16 66.43-27.68 0.09375 9.1484 15.348 3.0977 16.605 11.07-7.2695-0.71875-40.051-0.83984-22.145 5.5352 56.508-4.4375 55.629 37.613 88.57 66.441-10.883-1.6641-10.992 7.4727-16.633 11.043-7.3477 0.83984-16.688-22.496-22.129-5.5078 12.113 0.8125 11.898 13.941 11.059 27.68-27.449-9.0273-3.125 0.66406-16.621 11.059-20.668-10.707-36.586-26.164-60.906-33.227 13.59-4.8438 31.914-4.9688 33.227-22.129 4.1133-17.055-15.227-10.625-11.07-27.68-8.1211 0.054688-45.316-2.0859-27.68 5.5508 4.5469 24.824-15.891 24.715-22.156 38.75 8.1211 4.8047 17.555 8.2969 16.621 22.145-4.4531-2.9219-8.9883-5.7656-16.621-5.5352-6.9688 1.3789-5.5781 11.016 0 11.07-1 9.3516-26.297-2.5586-22.156-16.605-26.23 8.7969-39.129 30.98-55.344 49.82 4.75 21.086 25.812 25.863 44.273 33.215 4.4648 2.9375 9.0156 5.7812 16.633 5.5234-4.0078 16.934 5.6562 20.168 5.5234 33.215 18.883-44.504 35.121-33.039 33.227-105.18 4.7109 1 5.2227-2.1641 5.5234-5.5352 5.4414-0.47266 13.156 14.617 33.227 11.059 14.062 4.3867 2.9922 33.918 22.129 33.227 17.922 6.8477 4.2227-17.906 22.156-11.086 17.34 51.676 47.453 77.988 55.359 127.34-16.918 4.0078-20.168-5.6562-33.199-5.5234-19.355 4.9414-9.4609-18.055-5.5508-22.156 7.957-3.0977 13.508-8.6484 16.621-16.621-20.871 5.25-37.504 34.352-55.359 11.07 4.5742 15.633-7.7969 14.348-5.5352 27.68-1.0273 4.7109 2.1523 5.2227 5.5352 5.5352 4.2891 1.2305 10.938 0.13672 11.059 5.5234v5.5508c-26.324 17.027-94.973 36.664-105.18 99.645-16.227 0.35156-20.559 12.656-27.664 22.145-11.734 4.9414 10.949 38.723-5.5508 49.836-13.387-6.9297-17.895-22.711-22.156-38.75-50.336-29.207-141.61 63.086-55.359 83.051h5.5508c-2.0039-17.555 30.371-24.797 33.188-5.5352-8.2031 4.7109-11.898 13.914-11.059 27.652-0.93359 12.031 19.641 2.543 27.68 5.5508-1.5547 24.523-11.75 45.734 16.605 49.809 4.3047 1.2461 10.949 0.16406 11.086 5.5508 21.738-2.2461 23.645-24.32 44.285-27.68 12.398 11.504 35.746 16.227 71.953 16.605 7.7695 34.676 49.809 35.082 71.953 55.383v27.68c39.551 10.285 68.73 30.926 105.18 44.258-5.2109 52.027-39.48 74.941-38.723 132.89-14.887 7.2969-29.453 14.859-44.301 22.129-5.1289 36.395-29.047 80.383-60.906 71.953-2.2617 13.344 10.125 12.031 5.5234 27.707-56.699 16.023-44.082 50.512-53.164 95.543-14.414-5.793-28.559-12.086-42.406-18.949-21.969-43.164 14.781-122.79 1.5156-201.49-10.328-61.328-97.574-96.68-82.09-169.69 9.8672-12.031 21.344-22.441 27.355-38.332-39.832-58.66-118.04-79.016-175.14-120.41 1.5977-30.793-9.6094-48.781-27.367-60.203 0.92188 15.512 10.043 22.805 10.977 38.305-38.535-37.625-52.555-96.977-54.195-153.31 35.613-111.85 103.77-209.09 193.3-280.76zm112.66 455.35c1.9102 23.754-20.168 14.957-33.199 11.07 5.0742-9.6758 17.285-12.234 33.199-11.07zm-99.641-22.156c14.996-24.188 52.801 9.6758 66.441 22.172-30.141 0.58203-34.621-24.484-66.441-22.172z"/>
</svg>
