<?xml version="1.0" encoding="UTF-8" standalone="no"?><svg xmlns="http://www.w3.org/2000/svg" xmlns:xlink="http://www.w3.org/1999/xlink" contentScriptType="application/ecmascript" contentStyleType="text/css" height="511px" preserveAspectRatio="none" style="width:1051px;height:511px;" version="1.1" viewBox="0 0 1051 511" width="1051px" zoomAndPan="magnify"><defs><filter height="300%" id="f5pw54uusx1ml" width="300%" x="-1" y="-1"><feGaussianBlur result="blurOut" stdDeviation="2.0"/><feColorMatrix in="blurOut" result="blurOut2" type="matrix" values="0 0 0 0 0 0 0 0 0 0 0 0 0 0 0 0 0 0 .4 0"/><feOffset dx="4.0" dy="4.0" in="blurOut2" result="blurOut3"/><feBlend in="SourceGraphic" in2="blurOut3" mode="normal"/></filter></defs><g><!--MD5=[01a71e4928276a9969f774d5ed40ac85]
entity node_0--><rect fill="#FFFFFF" filter="url(#f5pw54uusx1ml)" height="39.0679" style="stroke: #000000; stroke-width: 1.5;" width="140" x="678" y="8"/><text fill="#000000" font-family="sans-serif" font-size="14" lengthAdjust="spacingAndGlyphs" textLength="120" x="688" y="32.9659">SubCallStatement</text><!--MD5=[0d266a13c4a2e955636e4c1d31e14fbc]
entity node_1--><rect fill="#FFFFFF" filter="url(#f5pw54uusx1ml)" height="58.1358" style="stroke: #000000; stroke-width: 1.5;" width="195" x="650.5" y="107"/><text fill="#000000" font-family="sans-serif" font-size="14" lengthAdjust="spacingAndGlyphs" textLength="175" x="660.5" y="131.9659">Func: dynamic_plant_alloc</text><text fill="#000000" font-family="sans-serif" font-size="14" lengthAdjust="spacingAndGlyphs" textLength="145" x="660.5" y="151.0339">Args: expr, expr, expr</text><!--MD5=[d03e252b5bbc176452e22fc9bc3c7c92]
entity node_2--><rect fill="#FFFFFF" filter="url(#f5pw54uusx1ml)" height="58.1358" style="stroke: #000000; stroke-width: 1.5;" width="127" x="402.5" y="225"/><text fill="#000000" font-family="sans-serif" font-size="14" lengthAdjust="spacingAndGlyphs" textLength="66" x="412.5" y="249.9659">Func: min</text><text fill="#000000" font-family="sans-serif" font-size="14" lengthAdjust="spacingAndGlyphs" textLength="107" x="412.5" y="269.0339">Args: expr, expr</text><!--MD5=[00d50d428459b4780b1fd32be2c047f6]
entity node_3--><rect fill="#FFFFFF" filter="url(#f5pw54uusx1ml)" height="58.1358" style="stroke: #000000; stroke-width: 1.5;" width="84" x="175" y="343"/><text fill="#000000" font-family="sans-serif" font-size="14" lengthAdjust="spacingAndGlyphs" textLength="64" x="185" y="367.9659">InfixExpr:</text><text fill="#000000" font-family="sans-serif" font-size="14" lengthAdjust="spacingAndGlyphs" textLength="33" x="185" y="387.0339">Op: -</text><!--MD5=[b1d4705e894dfe6ee142809361de5b0a]
entity node_4--><rect fill="#FFFFFF" filter="url(#f5pw54uusx1ml)" height="39.0679" style="stroke: #000000; stroke-width: 1.5;" width="90" x="6" y="461"/><text fill="#000000" font-family="sans-serif" font-size="14" lengthAdjust="spacingAndGlyphs" textLength="70" x="16" y="485.9659">Literal: 1.0</text><!--MD5=[e027001799ea1ddef225da0a6aaf3286]
entity node_5--><rect fill="#FFFFFF" filter="url(#f5pw54uusx1ml)" height="39.0679" style="stroke: #000000; stroke-width: 1.5;" width="172" x="131" y="461"/><text fill="#000000" font-family="sans-serif" font-size="14" lengthAdjust="spacingAndGlyphs" textLength="152" x="141" y="485.9659">Identifier: n_lim_factor</text><!--MD5=[605f1e2ee47cb60b592017439a76b992]
entity node_6--><rect fill="#FFFFFF" filter="url(#f5pw54uusx1ml)" height="58.1358" style="stroke: #000000; stroke-width: 1.5;" width="84" x="424" y="343"/><text fill="#000000" font-family="sans-serif" font-size="14" lengthAdjust="spacingAndGlyphs" textLength="64" x="434" y="367.9659">InfixExpr:</text><text fill="#000000" font-family="sans-serif" font-size="14" lengthAdjust="spacingAndGlyphs" textLength="33" x="434" y="387.0339">Op: -</text><!--MD5=[e0e9ce13eff3b5206d4de3686271b7e5]
entity node_7--><rect fill="#FFFFFF" filter="url(#f5pw54uusx1ml)" height="39.0679" style="stroke: #000000; stroke-width: 1.5;" width="90" x="338" y="461"/><text fill="#000000" font-family="sans-serif" font-size="14" lengthAdjust="spacingAndGlyphs" textLength="70" x="348" y="485.9659">Literal: 1.0</text><!--MD5=[7ddfe117b33a6bf720d27f4789ae6f4d]
entity node_8--><rect fill="#FFFFFF" filter="url(#f5pw54uusx1ml)" height="39.0679" style="stroke: #000000; stroke-width: 1.5;" width="172" x="463" y="461"/><text fill="#000000" font-family="sans-serif" font-size="14" lengthAdjust="spacingAndGlyphs" textLength="152" x="473" y="485.9659">Identifier: p_lim_factor</text><!--MD5=[53acaa44c72ccac6c5d74b99a07325df]
entity node_9--><rect fill="#FFFFFF" filter="url(#f5pw54uusx1ml)" height="58.1358" style="stroke: #000000; stroke-width: 1.5;" width="84" x="706" y="225"/><text fill="#000000" font-family="sans-serif" font-size="14" lengthAdjust="spacingAndGlyphs" textLength="64" x="716" y="249.9659">InfixExpr:</text><text fill="#000000" font-family="sans-serif" font-size="14" lengthAdjust="spacingAndGlyphs" textLength="36" x="716" y="269.0339">Op: +</text><!--MD5=[bedd0d86d286c75229dd9a1251cdb3ca]
entity node_10--><rect fill="#FFFFFF" filter="url(#f5pw54uusx1ml)" height="58.1358" style="stroke: #000000; stroke-width: 1.5;" width="101" x="668.5" y="343"/><text fill="#000000" font-family="sans-serif" font-size="14" lengthAdjust="spacingAndGlyphs" textLength="81" x="678.5" y="367.9659">Func: laisun</text><text fill="#000000" font-family="sans-serif" font-size="14" lengthAdjust="spacingAndGlyphs" textLength="48" x="678.5" y="387.0339">Args: p</text><!--MD5=[daa009d816def6c0c524f08ca7789f2b]
entity node_11--><rect fill="#FFFFFF" filter="url(#f5pw54uusx1ml)" height="39.0679" style="stroke: #000000; stroke-width: 1.5;" width="100" x="670" y="461"/><text fill="#000000" font-family="sans-serif" font-size="14" lengthAdjust="spacingAndGlyphs" textLength="80" x="680" y="485.9659">Identifier: p</text><!--MD5=[d2bf5c05d154e394846ff7d30c4a00df]
entity node_12--><rect fill="#FFFFFF" filter="url(#f5pw54uusx1ml)" height="58.1358" style="stroke: #000000; stroke-width: 1.5;" width="100" x="805" y="343"/><text fill="#000000" font-family="sans-serif" font-size="14" lengthAdjust="spacingAndGlyphs" textLength="80" x="815" y="367.9659">Func: laisha</text><text fill="#000000" font-family="sans-serif" font-size="14" lengthAdjust="spacingAndGlyphs" textLength="48" x="815" y="387.0339">Args: p</text><!--MD5=[af03cb5badc60ef9aaff9b471aac85fa]
entity node_13--><rect fill="#FFFFFF" filter="url(#f5pw54uusx1ml)" height="39.0679" style="stroke: #000000; stroke-width: 1.5;" width="100" x="805" y="461"/><text fill="#000000" font-family="sans-serif" font-size="14" lengthAdjust="spacingAndGlyphs" textLength="80" x="815" y="485.9659">Identifier: p</text><!--MD5=[83e7cc80bfb332e0e4b1aad3ac44e11a]
entity node_14--><rect fill="#FFFFFF" filter="url(#f5pw54uusx1ml)" height="58.1358" style="stroke: #000000; stroke-width: 1.5;" width="156" x="883" y="225"/><text fill="#000000" font-family="sans-serif" font-size="14" lengthAdjust="spacingAndGlyphs" textLength="136" x="893" y="249.9659">Func: allocation_leaf</text><text fill="#000000" font-family="sans-serif" font-size="14" lengthAdjust="spacingAndGlyphs" textLength="48" x="893" y="269.0339">Args: p</text><!--MD5=[6cb7a3f2737dbab451c18ceea178abfa]
entity node_15--><rect fill="#FFFFFF" filter="url(#f5pw54uusx1ml)" height="39.0679" style="stroke: #000000; stroke-width: 1.5;" width="100" x="940" y="352.5"/><text fill="#000000" font-family="sans-serif" font-size="14" lengthAdjust="spacingAndGlyphs" textLength="80" x="950" y="377.4659">Identifier: p</text><!--MD5=[fdf29c528f6b6874606d21887cd8f472]
link node_0 to node_1--><path d="M748,47.05 C748,61.96 748,83.29 748,101.21 " fill="none" id="node_0-&gt;node_1" style="stroke: #A80036; stroke-width: 1.0;"/><polygon fill="#A80036" points="748,106.65,752,97.65,748,101.65,744,97.65,748,106.65" style="stroke: #A80036; stroke-width: 1.0;"/><!--MD5=[56903679899aad5b18cca95bf9d49c67]
link node_1 to node_2--><path d="M679.74,165.08 C635.7,183.19 578.63,206.67 534.54,224.81 " fill="none" id="node_1-&gt;node_2" style="stroke: #A80036; stroke-width: 1.0;"/><polygon fill="#A80036" points="529.77,226.77,539.6151,227.042,534.3934,224.8663,536.5691,219.6445,529.77,226.77" style="stroke: #A80036; stroke-width: 1.0;"/><!--MD5=[74e442e3a925df257eebe1e3101e943e]
link node_2 to node_3--><path d="M405.72,283.08 C362.16,303.38 304.14,330.4 263.99,349.11 " fill="none" id="node_2-&gt;node_3" style="stroke: #A80036; stroke-width: 1.0;"/><polygon fill="#A80036" points="259.18,351.35,269.0276,351.1926,263.716,349.2465,265.6621,343.935,259.18,351.35" style="stroke: #A80036; stroke-width: 1.0;"/><!--MD5=[2af2e4c289afc2d0bf0c6d0c96098867]
link node_3 to node_4--><path d="M174.68,400.15 C146.62,418.15 110.32,441.44 84.32,458.12 " fill="none" id="node_3-&gt;node_4" style="stroke: #A80036; stroke-width: 1.0;"/><polygon fill="#A80036" points="79.91,460.95,89.6436,459.4479,84.1159,458.2462,85.3176,452.7185,79.91,460.95" style="stroke: #A80036; stroke-width: 1.0;"/><!--MD5=[8bfa9670f922811c127d35343495cde8]
link node_3 to node_5--><path d="M217,401.26 C217,418.2 217,439.51 217,455.61 " fill="none" id="node_3-&gt;node_5" style="stroke: #A80036; stroke-width: 1.0;"/><polygon fill="#A80036" points="217,460.85,221,451.85,217,455.85,213,451.85,217,460.85" style="stroke: #A80036; stroke-width: 1.0;"/><!--MD5=[6b010c7537bf2ed385b6a07ca3c89562]
link node_2 to node_6--><path d="M466,283.08 C466,299.49 466,320.29 466,337.54 " fill="none" id="node_2-&gt;node_6" style="stroke: #A80036; stroke-width: 1.0;"/><polygon fill="#A80036" points="466,342.78,470,333.78,466,337.78,462,333.78,466,342.78" style="stroke: #A80036; stroke-width: 1.0;"/><!--MD5=[931d5d31112237795ba11450387f9027]
link node_6 to node_7--><path d="M443.98,401.26 C430.43,418.64 413.3,440.62 400.65,456.86 " fill="none" id="node_6-&gt;node_7" style="stroke: #A80036; stroke-width: 1.0;"/><polygon fill="#A80036" points="397.53,460.85,406.2164,456.2081,400.6027,456.9055,399.9052,451.2919,397.53,460.85" style="stroke: #A80036; stroke-width: 1.0;"/><!--MD5=[061d8d456bbf8ee2ee5a0bc9b6951ec0]
link node_6 to node_8--><path d="M488.02,401.26 C501.57,418.64 518.7,440.62 531.35,456.86 " fill="none" id="node_6-&gt;node_8" style="stroke: #A80036; stroke-width: 1.0;"/><polygon fill="#A80036" points="534.47,460.85,532.0948,451.2919,531.3973,456.9055,525.7836,456.2081,534.47,460.85" style="stroke: #A80036; stroke-width: 1.0;"/><!--MD5=[f0ffaf830ce450e0523b6367c6ace59f]
link node_1 to node_9--><path d="M748,165.08 C748,181.49 748,202.29 748,219.54 " fill="none" id="node_1-&gt;node_9" style="stroke: #A80036; stroke-width: 1.0;"/><polygon fill="#A80036" points="748,224.78,752,215.78,748,219.78,744,215.78,748,224.78" style="stroke: #A80036; stroke-width: 1.0;"/><!--MD5=[4bcdcaf1bd51f1b5180b69fe175d2e0d]
link node_9 to node_10--><path d="M740.98,283.08 C736.88,299.49 731.68,320.29 727.36,337.54 " fill="none" id="node_9-&gt;node_10" style="stroke: #A80036; stroke-width: 1.0;"/><polygon fill="#A80036" points="726.06,342.78,732.1234,335.0189,727.2727,337.9293,724.3623,333.0786,726.06,342.78" style="stroke: #A80036; stroke-width: 1.0;"/><!--MD5=[93f4723f3f1841f051b40a8c3b7deb99]
link node_10 to node_11--><path d="M719.27,401.26 C719.42,418.2 719.62,439.51 719.78,455.61 " fill="none" id="node_10-&gt;node_11" style="stroke: #A80036; stroke-width: 1.0;"/><polygon fill="#A80036" points="719.82,460.85,723.7427,451.816,719.7771,455.8502,715.743,451.8846,719.82,460.85" style="stroke: #A80036; stroke-width: 1.0;"/><!--MD5=[01d49734dec7f8033f8359e2a70378c5]
link node_9 to node_12--><path d="M773.9,283.08 C789.43,299.91 809.22,321.37 825.37,338.88 " fill="none" id="node_9-&gt;node_12" style="stroke: #A80036; stroke-width: 1.0;"/><polygon fill="#A80036" points="828.97,342.78,825.7896,333.4588,825.5727,339.1115,819.92,338.8945,828.97,342.78" style="stroke: #A80036; stroke-width: 1.0;"/><!--MD5=[e7b0aa48e43bd1dbd2b96d712649869e]
link node_12 to node_13--><path d="M855,401.26 C855,418.2 855,439.51 855,455.61 " fill="none" id="node_12-&gt;node_13" style="stroke: #A80036; stroke-width: 1.0;"/><polygon fill="#A80036" points="855,460.85,859,451.85,855,455.85,851,451.85,855,460.85" style="stroke: #A80036; stroke-width: 1.0;"/><!--MD5=[6570e88c80dd9c1f3c63b0596d0fdb89]
link node_1 to node_14--><path d="M799.56,165.08 C831.36,182.4 872.16,204.62 904.79,222.39 " fill="none" id="node_1-&gt;node_14" style="stroke: #A80036; stroke-width: 1.0;"/><polygon fill="#A80036" points="909.54,224.98,903.5454,217.1656,905.1478,222.5908,899.7226,224.1931,909.54,224.98" style="stroke: #A80036; stroke-width: 1.0;"/><!--MD5=[d23aee8670aab9ffdfc179d4a6d69895]
link node_14 to node_15--><path d="M968.02,283.08 C972.92,302.69 979.4,328.59 984.05,347.19 " fill="none" id="node_14-&gt;node_15" style="stroke: #A80036; stroke-width: 1.0;"/><polygon fill="#A80036" points="985.31,352.23,987.001,342.5274,984.094,347.3801,979.2412,344.4731,985.31,352.23" style="stroke: #A80036; stroke-width: 1.0;"/><!--MD5=[3862af7a5d827c14bdfef0127c2ea3a6]
@startuml
hide stereotype
skinparam rectangle {
  BackgroundColor white
  BorderColor black
  FontColor black
  ShowStereotype false
}
rectangle "SubCallStatement" as node_0
rectangle "Func: dynamic_plant_alloc\nArgs: expr, expr, expr" as node_1
node_0 - -> node_1
rectangle "Func: min\nArgs: expr, expr" as node_2
node_1 - -> node_2
rectangle "InfixExpr:\nOp: -" as node_3
node_2 - -> node_3
rectangle "Literal: 1.0" as node_4
node_3 - -> node_4
rectangle "Identifier: n_lim_factor" as node_5
node_3 - -> node_5
rectangle "InfixExpr:\nOp: -" as node_6
node_2 - -> node_6
rectangle "Literal: 1.0" as node_7
node_6 - -> node_7
rectangle "Identifier: p_lim_factor" as node_8
node_6 - -> node_8
rectangle "InfixExpr:\nOp: +" as node_9
node_1 - -> node_9
rectangle "Func: laisun\nArgs: p" as node_10
node_9 - -> node_10
rectangle "Identifier: p" as node_11
node_10 - -> node_11
rectangle "Func: laisha\nArgs: p" as node_12
node_9 - -> node_12
rectangle "Identifier: p" as node_13
node_12 - -> node_13
rectangle "Func: allocation_leaf\nArgs: p" as node_14
node_1 - -> node_14
rectangle "Identifier: p" as node_15
node_14 - -> node_15
@enduml

PlantUML version 1.2020.02(Sun Mar 01 05:22:07 EST 2020)
(GPL source distribution)
Java Runtime: OpenJDK Runtime Environment
JVM: OpenJDK 64-Bit Server VM
Java Version: 21.0.7+6-Ubuntu-0ubuntu124.04
Operating System: Linux
Default Encoding: UTF-8
Language: en
Country: US
--></g></svg>